<svg width="364" height="264" viewBox="0 0 364 264" fill="none" xmlns="http://www.w3.org/2000/svg">
<g opacity="0.67">
<path d="M86.1997 118.772L80.3138 120.734L86.0902 117.103C86.0431 116.549 85.9849 115.991 85.9144 115.428L82.8065 116.026L85.7479 114.205C85.075 109.866 83.5772 104.421 81.5223 98.8631L70.0661 103.285L81.0135 97.5125C78.139 90.0451 74.2981 82.5229 70.1301 77.335L63.9724 81.6811L68.8821 75.8622C65.0889 71.6436 61.0833 69.4961 57.3252 71.1563C52.759 73.174 51.4504 82.9571 52.8562 94.7539L55.9403 94.6991L52.9249 95.3022C53.5734 100.465 54.7353 105.991 56.3658 111.409L68.127 107.439L56.8979 113.123C59.3818 120.867 62.8233 128.278 67.0903 133.958L71.7275 129.32L67.96 135.076C71.5528 139.541 75.6935 142.778 80.3138 144C80.3138 144 86.8516 133.013 86.1997 118.772" fill="#03673D"/>
<path d="M80.9873 144C80.9873 144 87.5251 133.013 86.8731 118.772L80.9873 120.734L86.7637 117.103C86.7165 116.549 86.6583 115.991 86.5879 115.428L83.4799 116.026L86.4214 114.205C85.7485 109.866 84.2507 104.421 82.1958 98.8637L70.7396 103.285L81.687 97.5131C78.8125 90.0451 74.9716 82.5229 70.8036 77.335L64.6459 81.6817L69.5556 75.8622C65.7624 71.6436 61.7568 69.4961 57.9987 71.1563C57.9987 71.1563 75.0945 111.911 80.6549 143.903C80.7661 143.934 80.8761 143.97 80.9873 144Z" fill="#04AD66"/>
<path d="M77.3108 152.954L72.9553 153.97L76.933 151.815C76.5238 150.646 76.0354 149.428 75.448 148.154C74.2383 145.534 72.5077 142.536 70.5029 139.637L66.5846 142.614L69.345 138.014C63.2676 129.777 55.2792 123.117 51.3516 129.597C49.7374 132.26 49.6308 136.5 50.7456 141.266L59.6602 140.953L51.0658 142.528C51.9558 145.781 53.3844 149.227 55.2675 152.554L58.2759 151.201L55.6837 153.274C57.6682 156.644 60.1178 159.863 62.9428 162.601L69.0772 155.909L63.791 163.398C67.5067 166.783 71.8231 169.323 76.5558 170.312C76.5558 170.312 80.8635 164.27 77.3108 152.954" fill="#10794D"/>
<path d="M76.2048 170.23C76.3224 170.257 76.4389 170.287 76.557 170.311C76.557 170.311 80.8647 164.269 77.312 152.954L72.956 153.97L76.9342 151.815C76.525 150.647 76.0366 149.428 75.4487 148.154C74.2396 145.534 72.5089 142.536 70.5041 139.636L66.5858 142.614L69.3457 138.014C63.6176 130.249 56.192 123.891 52.0688 128.614C55.3712 133.068 69.2857 152.358 76.2048 170.23Z" fill="#04AD66"/>
<path d="M63.8987 165.394C61.4672 163.098 57.1286 160.278 52.0917 157.686C49.9074 160.913 47.469 164.558 47.0493 165.356C46.9894 165.499 46.9671 165.548 46.9942 165.474C47.0037 165.447 47.0229 165.407 47.0493 165.356C47.4025 164.519 49.112 160.305 50.497 156.885C47.4754 155.402 44.2587 154.025 41.0854 152.901L39.3583 161.096L40.154 152.578C30.2583 149.221 21.0317 148.496 19.8566 154.996C19.5318 156.793 20.1617 158.789 21.5117 160.878C25.3045 160.656 30.7912 160.3 30.7912 160.3L22.7921 162.624C25.7258 166.239 30.5453 170.038 36.1334 173.51L40.9339 164.193L37.01 174.047C42.8958 177.617 49.5402 180.803 55.6846 183.03C56.2058 180.732 56.5869 179.068 56.5869 179.068L56.6642 183.378C57.8471 183.791 59.0077 184.166 60.138 184.5L60.6464 182.512L60.9798 184.741C66.6077 186.32 71.3932 186.812 74.1352 185.667C74.1352 185.667 76.3154 177.124 63.8987 165.394" fill="#007248"/>
<path d="M97.9811 104.051C103.911 89.4442 112.021 86.3951 115.336 86.6964C120.832 85.9733 121.12 95.5545 120.578 100.435H112.262L120.578 102.062C120.433 109.872 118.348 118.212 117.324 121.406L107.02 119.417L117.324 122.852C114.721 132.686 110.816 141.773 109.189 145.087L98.7039 140.206L108.647 146.172L107.381 148.341L104.489 147.799L107.02 149.064C102.536 158.175 94.1845 161.899 90.5689 162.623C87.5319 159.007 86.6521 152.077 86.5918 149.064L92.0152 147.799H86.5918C86.0134 142.593 87.797 133.578 88.7612 129.721L92.919 131.529L88.9419 128.817L89.4843 127.01L98.3423 129.721L90.2074 124.659C91.0751 119.598 95.2691 109.655 97.2577 105.316L102.862 106.04L97.9811 104.051Z" fill="#096B42"/>
<path d="M107.107 149.371C102.53 158.39 94.2066 162.215 90.6169 163C96.0014 125.847 110.248 96.7039 116.698 86.7764C121.14 87.584 121.241 96.4235 120.736 100.742L112.491 100.406L120.736 101.92C120.198 110.804 118.493 118.747 117.707 121.607L106.602 119.251L117.203 122.785C114.645 133.823 110.753 142.304 109.126 145.164L98.8619 140.116L108.789 146.174L107.443 148.529L104.583 147.856L107.107 149.371Z" fill="#0EA867"/>
<path fill-rule="evenodd" clip-rule="evenodd" d="M85.5292 214.947C85.5291 214.948 85.5291 214.948 84.8639 214.904L85.5291 214.948C85.5057 215.299 85.2134 215.572 84.8615 215.571C84.5097 215.569 84.2194 215.295 84.1984 214.944C82.9678 194.296 71.45 180.862 59.5318 172.289C49.5024 165.075 39.2582 161.345 34.6334 159.662C33.7523 159.341 33.0751 159.094 32.6423 158.912C32.4008 158.81 32.2505 158.583 32.2354 158.338C27.7135 156.884 23.5586 155.851 20.0794 155.125C20.0836 155.091 20.0868 155.057 20.09 155.023C20.0951 154.968 20.1003 154.913 20.11 154.859C21.2746 148.591 30.4584 149.299 40.3099 152.545L39.5886 160.102C39.613 160.112 39.6374 160.122 39.6618 160.132L41.2373 152.857C44.3966 153.944 47.5994 155.275 50.6087 156.707C49.5832 159.164 48.3803 162.044 47.6887 163.686C47.8172 163.749 47.9462 163.813 48.0755 163.878C49.062 162.37 50.805 159.826 52.4124 157.5C57.4907 160.059 61.8649 162.843 64.3167 165.11C76.1156 176.02 74.8484 184.13 74.6633 185.028C79.1788 191.024 82.7679 198.235 84.5033 206.874C84.524 205.919 84.5418 204.888 84.5547 203.786C84.6365 196.818 84.5251 186.998 83.7524 175.599C82.2062 152.789 78.0149 123.702 67.4552 98.4755C67.313 98.1359 67.4731 97.7453 67.8127 97.6031C68.1524 97.4609 68.5429 97.621 68.6851 97.9607C79.3267 123.382 83.5323 152.637 85.0827 175.509C85.8582 186.95 85.97 196.805 85.8879 203.802C85.8469 207.3 85.7573 210.084 85.678 211.995C85.6383 212.95 85.6012 213.687 85.5739 214.186C85.5603 214.436 85.5491 214.626 85.5414 214.753L85.5323 214.898L85.53 214.935L85.5293 214.945L85.5292 214.947Z" fill="#128E5A"/>
<path d="M61.0447 141.23C61.0447 141.23 84.864 174.466 84.864 214.904C88.465 144.277 106.77 105.79 106.77 105.79" stroke="#014D2D" stroke-miterlimit="10" stroke-linecap="round" stroke-linejoin="round"/>
<path d="M92.6435 203.72H73.5383C73.5383 203.72 68.3943 244.446 84.928 249.174C101.461 253.901 92.6435 203.72 92.6435 203.72Z" fill="#F52D29"/>
<path d="M96.0022 203.72H78.0895C78.0895 203.72 74.0366 244.446 87.0632 249.174C107.781 251.507 96.0022 203.72 96.0022 203.72Z" fill="#F80700"/>
</g>
<g opacity="0.76">
<path d="M100.067 13.04H93.8877V37.356H100.067V13.04Z" fill="#FF1F55"/>
<path d="M107.39 13.04H101.211V37.356H107.39V13.04Z" fill="#FFC702"/>
<path d="M111.957 13.475L106.723 16.7607L119.666 37.3564L124.9 34.0707L111.957 13.475Z" fill="#3D99EE"/>
<path d="M160.172 42.7165H93.4923C92.07 42.7165 90.7058 42.1518 89.7001 41.1465C88.6943 40.1413 88.1293 38.7778 88.1293 37.3562H165.535C165.535 38.7777 164.97 40.141 163.964 41.1463C162.959 42.1515 161.595 42.7163 160.172 42.7165V42.7165Z" fill="#6F2A1A"/>
<path d="M161.441 13.9402H131.92V37.3555H161.441V13.9402Z" fill="#BDD8F5"/>
<path d="M159.467 16.2405H133.895V35.0512H159.467V16.2405Z" fill="#FB4C47"/>
<path d="M146.681 31.6816C150.015 31.6816 152.717 28.9803 152.717 25.648C152.717 22.3158 150.015 19.6145 146.681 19.6145C143.347 19.6145 140.644 22.3158 140.644 25.648C140.644 28.9803 143.347 31.6816 146.681 31.6816Z" fill="#FFC700"/>
<path d="M153.967 35.0515H133.895V26.0444C137.36 25.9133 142.478 26.3345 147.314 29.1128C149.92 30.6096 152.185 32.632 153.967 35.0515V35.0515Z" fill="#1DB776"/>
<path d="M159.467 22.6802V35.0516H143.374C144.405 32.8991 145.73 30.9004 147.312 29.113C150.06 26.0251 153.979 23.3651 159.467 22.6802Z" fill="#11915B"/>
<path d="M103.784 47.3697H98.972L99.6367 37.3557H103.119L103.784 47.3697Z" fill="#592A3C"/>
<path d="M154.693 47.3697H149.881L150.546 37.3557H154.029L154.693 47.3697Z" fill="#592A3C"/>
<path d="M255.896 32.1021H187.274V0H255.896V32.1021ZM190.217 29.1619H252.954V2.94099H190.216L190.217 29.1619Z" fill="#925C50"/>
<path d="M252.954 2.94116H190.216V29.1621H252.954V2.94116Z" fill="white"/>
<path d="M204.167 22.3351C209.454 21.0971 212.735 15.81 211.497 10.526C210.258 5.24202 204.968 1.9621 199.682 3.20008C194.395 4.43807 191.113 9.72516 192.352 15.0091C193.591 20.2931 198.88 23.573 204.167 22.3351Z" fill="#FFC700"/>
<path d="M190.216 20.8837L208.866 12.5592C210.352 11.8959 211.991 11.6507 213.606 11.8501C215.221 12.0495 216.751 12.6859 218.031 13.6907L237.74 29.1617H190.217L190.216 20.8837Z" fill="#11915B"/>
<path d="M222.779 17.4184L236.827 12.7763C238.329 12.2798 239.937 12.1909 241.484 12.5185C243.032 12.8461 244.465 13.5786 245.637 14.641L252.953 21.2739V29.1635H237.74L222.779 17.4184Z" fill="#1DB776"/>
</g>
<path opacity="0.89" d="M153.68 77.3798C153.04 77.361 152.488 77.8541 152.331 78.5319C151.339 78.6093 150.206 78.6355 148.963 78.5569C148.268 78.5121 147.611 78.4395 146.995 78.3497C146.998 78.2311 147 78.1113 147 77.9915C147 77.4084 146.959 76.8355 146.88 76.2751C147.193 76.0342 147.586 75.7808 148.06 75.5635C148.884 75.1841 149.656 75.0492 150.249 75.0106C150.541 75.676 151.21 76.0628 151.852 75.8944C152.575 75.7046 152.987 74.8845 152.774 74.0619C152.562 73.2393 151.804 72.7249 151.082 72.9147C150.423 73.0882 150.022 73.7848 150.117 74.5299C149.596 74.8271 148.823 75.1491 147.866 75.1729C147.392 75.1853 146.978 75.1216 146.643 75.0392C146.43 74.1692 146.124 73.3353 145.734 72.5489C146.147 72.1745 146.634 71.7775 147.205 71.3942C148.032 70.8375 148.83 70.4393 149.53 70.1536C149.987 70.6902 150.715 70.8687 151.277 70.5416C151.922 70.1672 152.105 69.2646 151.684 68.5283C151.261 67.7917 150.393 67.4996 149.748 67.8753C149.186 68.2011 148.976 68.9253 149.208 69.5918C148.607 70.0612 147.867 70.5567 146.979 70.9987C146.375 71.3007 145.797 71.5304 145.274 71.7051C144.848 70.9848 144.346 70.3133 143.785 69.7004C144.001 68.9115 144.366 67.9901 144.988 67.0665C145.571 66.2027 146.221 65.5723 146.772 65.129C147.378 65.5074 148.142 65.4486 148.576 64.9506C149.07 64.3865 148.957 63.474 148.322 62.9122C147.689 62.3493 146.775 62.3505 146.283 62.9146C145.847 63.4128 145.883 64.1805 146.334 64.7409C145.978 65.3326 145.44 66.0665 144.648 66.7656C143.776 67.5371 142.898 67.999 142.231 68.2736C141.472 67.6881 140.644 67.1912 139.758 66.7981C139.887 66.4399 140.057 66.0791 140.28 65.7246C140.459 65.4438 140.65 65.1964 140.846 64.9807C141.521 65.2565 142.274 65.0579 142.613 64.48C142.996 63.8347 142.717 62.9584 141.99 62.5239C141.265 62.0895 140.367 62.2605 139.985 62.9072C139.651 63.4752 139.828 64.2215 140.367 64.6884C140.255 64.988 140.118 65.2989 139.956 65.6159C139.77 65.9805 139.567 66.3163 139.355 66.6271C139.265 66.5909 139.175 66.5559 139.086 66.5236C138.03 66.1266 136.908 65.8757 135.738 65.7907C135.546 65.269 135.378 64.6907 135.261 64.0556C135.022 62.7597 135.066 61.6318 135.176 60.7847C135.864 60.652 136.38 60.1077 136.38 59.4556C136.38 58.7043 135.696 58.0951 134.851 58.0951C134.007 58.0951 133.322 58.7043 133.322 59.4556C133.322 60.119 133.857 60.6707 134.562 60.7912C134.715 61.6259 134.816 62.7946 134.579 64.1491C134.474 64.7455 134.319 65.289 134.138 65.7808C133.017 65.8445 131.937 66.0626 130.917 66.4141C130.775 66.1872 130.648 65.949 130.535 65.6681C130.309 65.1118 130.21 64.5901 130.172 64.156C130.831 63.8102 131.172 63.0847 130.938 62.4429C130.683 61.7369 129.832 61.4012 129.039 61.6929C128.246 61.9847 127.811 62.7933 128.067 63.4992C128.287 64.1084 128.951 64.4408 129.639 64.3333C129.84 64.7487 130.032 65.2279 130.184 65.772C130.263 66.0603 130.324 66.342 130.37 66.6177C129.445 66.9869 128.576 67.4683 127.779 68.0444C127.359 67.7389 126.93 67.3841 126.506 66.9682C125.53 66.0111 124.878 65.0294 124.451 64.243C124.925 63.7149 125.007 62.9591 124.61 62.4383C124.155 61.8425 123.244 61.7796 122.575 62.2978C121.905 62.816 121.731 63.7192 122.187 64.3148C122.588 64.8414 123.347 64.9509 123.979 64.6118C124.597 65.1689 125.399 66.0481 126.021 67.3116C126.304 67.8895 126.503 68.4515 126.641 68.9757C126.513 69.0941 126.385 69.2162 126.261 69.3408C125.637 69.9696 125.081 70.6657 124.604 71.4192C124.323 71.3375 124.032 71.239 123.734 71.118C122.762 70.7247 122.01 70.2234 121.465 69.7867C121.697 69.1073 121.472 68.3741 120.895 68.0564C120.241 67.6953 119.382 68.0069 118.976 68.7525C118.571 69.4982 118.771 70.3954 119.426 70.7565C120.002 71.0742 120.734 70.8712 121.18 70.3109C121.841 70.5413 122.664 70.9108 123.515 71.5176C123.769 71.6988 124.003 71.8853 124.219 72.0729C123.545 73.2945 123.075 74.6448 122.852 76.0783C122.269 76.1285 121.642 76.1523 120.969 76.1315C120.009 76.1016 119.141 75.9882 118.383 75.8406C118.365 75.091 117.867 74.4633 117.191 74.3919C116.45 74.3135 115.776 74.9354 115.689 75.7811C115.6 76.6267 116.131 77.3758 116.872 77.4542C117.533 77.5239 118.137 77.0385 118.325 76.335C119.103 76.3509 119.977 76.4209 120.923 76.5848C121.577 76.6982 122.184 76.843 122.743 77.0037C122.717 77.3293 122.704 77.6585 122.704 77.9915C122.704 78.7822 122.778 79.5557 122.921 80.3053C122.278 80.734 121.389 81.2205 120.26 81.562C119.27 81.8616 118.378 81.9636 117.667 81.9855C117.413 81.3188 116.779 80.9031 116.136 81.0279C115.403 81.1705 114.938 81.9626 115.099 82.7975C115.259 83.6324 115.982 84.1937 116.716 84.0511C117.349 83.928 117.78 83.3192 117.782 82.6171C118.51 82.3788 119.368 82.1554 120.345 82.0096C121.469 81.8424 122.475 81.8185 123.322 81.8556C123.663 82.8901 124.14 83.8621 124.727 84.7518C124.451 84.9729 124.14 85.1913 123.793 85.3955C123.126 85.7863 122.487 86.0295 121.932 86.1867C121.555 85.5829 120.853 85.2993 120.248 85.546C119.556 85.8282 119.251 86.6957 119.57 87.4834C119.768 87.9777 120.165 88.3247 120.604 88.4433C120.863 88.5145 121.138 88.5057 121.395 88.4008C121.472 88.3697 121.544 88.3309 121.61 88.2847C122.116 87.9479 122.33 87.2498 122.116 86.5836C122.641 86.3108 123.254 86.0408 123.962 85.818C124.415 85.6751 124.849 85.5709 125.257 85.4932C125.628 85.9772 126.036 86.4313 126.475 86.8506C126.517 86.8904 126.558 86.9304 126.6 86.9678C126.303 87.6344 125.857 88.4445 125.183 89.266C124.523 90.0697 123.837 90.6553 123.261 91.0684C122.682 90.6553 121.924 90.664 121.458 91.127C120.927 91.6552 120.978 92.5739 121.572 93.1794C122.164 93.7835 123.078 93.8459 123.608 93.3178C124.068 92.8598 124.091 92.1058 123.698 91.5203C124.153 90.9249 124.745 90.2533 125.502 89.5905C126.313 88.879 127.115 88.3521 127.813 87.964C128.737 88.6255 129.758 89.161 130.849 89.5444C130.805 89.9575 130.731 90.4031 130.611 90.8712C130.349 91.8911 129.956 92.7087 129.598 93.3104C128.899 93.1694 128.208 93.4913 127.971 94.108C127.702 94.8083 128.122 95.6247 128.909 95.9317C129.696 96.2391 130.553 95.9194 130.822 95.2178C131.057 94.6087 130.769 93.9121 130.173 93.5402C130.342 92.8148 130.607 91.9573 131.031 91.0361C131.238 90.5867 131.459 90.1772 131.685 89.8039C132.524 90.0323 133.4 90.1722 134.302 90.2109C134.449 90.9224 134.569 91.7188 134.626 92.5889C134.712 93.8833 134.642 95.0292 134.52 95.9756C133.834 96.1095 133.322 96.6538 133.322 97.3036C133.322 98.0548 134.007 98.6643 134.852 98.6643C135.697 98.6643 136.38 98.0548 136.38 97.3036C136.38 96.656 135.871 96.1128 135.189 95.9767C135.075 95.0092 135.012 93.8659 135.077 92.5889C135.122 91.7275 135.219 90.9325 135.343 90.2134C136.286 90.1772 137.201 90.0311 138.075 89.7878C138.15 89.9175 138.225 90.0523 138.296 90.1909C138.77 91.106 139.026 91.9636 139.165 92.6501C138.556 93.0058 138.247 93.6973 138.465 94.3139C138.716 95.0218 139.563 95.3639 140.36 95.0792C141.155 94.7933 141.597 93.9881 141.346 93.2803C141.125 92.6526 140.431 92.3131 139.722 92.4429C139.397 91.8799 139.018 91.0298 138.887 89.9412C138.871 89.8064 138.858 89.6741 138.851 89.5444C139.826 89.2048 140.742 88.7417 141.584 88.1749C142.129 88.6206 142.703 89.1524 143.273 89.784C144.148 90.7551 144.785 91.7126 145.245 92.5264C144.778 93.0533 144.697 93.8035 145.092 94.3215C145.548 94.9168 146.458 94.9794 147.128 94.4613C147.798 93.9432 147.973 93.0408 147.517 92.444C147.124 91.9298 146.389 91.8124 145.765 92.1258C145.094 91.4404 144.349 90.5729 143.631 89.5068C143.167 88.8178 142.784 88.1488 142.468 87.5208C142.807 87.245 143.133 86.9516 143.44 86.6409C143.947 86.1315 144.409 85.5785 144.817 84.9869C145.571 85.199 146.443 85.5098 147.367 85.9767C148.258 86.4249 149.001 86.9178 149.599 87.3772C149.372 88.0439 149.588 88.7654 150.15 89.0874C150.798 89.4608 151.662 89.1636 152.082 88.4259C152.501 87.687 152.315 86.7868 151.666 86.4137C151.099 86.0878 150.367 86.2739 149.912 86.8206C149.243 86.5646 148.433 86.1765 147.592 85.581C146.719 84.9631 146.061 84.3003 145.582 83.7285C145.905 83.1194 146.178 82.4791 146.395 81.8124C146.758 81.825 147.139 81.8574 147.537 81.9173C148.557 82.0722 149.408 82.363 150.062 82.6526C150.005 83.364 150.404 84.0157 151.039 84.1791C151.76 84.3664 152.517 83.8509 152.728 83.027C152.938 82.2031 152.522 81.3843 151.801 81.1971C151.163 81.0322 150.5 81.4119 150.208 82.0671C149.512 82.0097 148.624 81.8562 147.651 81.4766C147.28 81.3319 146.94 81.1708 146.629 81.0023C146.784 80.3845 146.893 79.7489 146.949 79.0975C147.578 79.0463 148.247 79.0139 148.95 79.0126C150.193 79.0088 151.32 79.0986 152.31 79.231C152.429 79.9164 152.953 80.4381 153.593 80.4581C154.338 80.4793 154.963 79.8077 154.987 78.9576C155.011 78.1075 154.426 77.401 153.68 77.3798" fill="#FA5752" fill-opacity="0.82"/>
<path opacity="0.93" d="M59.3316 35.7756C58.3488 35.7467 57.4998 36.5079 57.2592 37.5545C55.7341 37.674 53.9938 37.7145 52.0841 37.5931C51.0166 37.5238 50.0067 37.4119 49.0594 37.2732C49.0645 37.09 49.0679 36.905 49.0679 36.72C49.0679 35.8199 49.0052 34.9353 48.8832 34.0699C49.3644 33.698 49.9677 33.3068 50.6963 32.9712C51.9621 32.3855 53.1483 32.1772 54.0599 32.1175C54.509 33.1449 55.5359 33.7421 56.5238 33.4822C57.6337 33.1892 58.2674 31.9229 57.9404 30.6527C57.6133 29.3827 56.4492 28.5885 55.3393 28.8816C54.3277 29.1494 53.7109 30.225 53.8566 31.3754C53.0568 31.8343 51.8689 32.3315 50.3981 32.3682C49.6694 32.3874 49.034 32.289 48.5189 32.1618C48.1918 30.8185 47.7208 29.5309 47.1226 28.3168C47.7563 27.7386 48.5053 27.1256 49.3831 26.5339C50.654 25.6744 51.8791 25.0595 52.9551 24.6184C53.6566 25.4469 54.7767 25.7226 55.6392 25.2175C56.6305 24.6395 56.9118 23.2458 56.2645 22.1089C55.6155 20.9716 54.2819 20.5206 53.2906 21.1007C52.4264 21.6038 52.1045 22.7218 52.4603 23.7509C51.5368 24.4757 50.3998 25.2408 49.0357 25.9232C48.1071 26.3895 47.2192 26.7441 46.416 27.0138C45.7602 25.9018 44.9892 24.8649 44.1267 23.9186C44.4588 22.7006 45.0197 21.278 45.9754 19.8519C46.8718 18.5181 47.8699 17.5449 48.7171 16.8605C49.6491 17.4446 50.8217 17.3539 51.4894 16.5849C52.2485 15.7139 52.074 14.305 51.0996 13.4376C50.127 12.5685 48.7222 12.5704 47.9665 13.4414C47.2954 14.2106 47.3514 15.3959 48.0444 16.2612C47.4971 17.1748 46.6702 18.3079 45.4535 19.3873C44.1131 20.5786 42.7643 21.2917 41.7391 21.7157C40.5733 20.8116 39.3007 20.0445 37.94 19.4375C38.1383 18.8844 38.3992 18.3273 38.7415 17.78C39.016 17.3464 39.3109 16.9645 39.6108 16.6314C40.6478 17.0573 41.8052 16.7506 42.3271 15.8583C42.9151 14.8619 42.4864 13.5089 41.3697 12.8382C40.2547 12.1674 38.8754 12.4315 38.2891 13.4299C37.7756 14.3069 38.0468 15.4593 38.8754 16.1801C38.7025 16.6427 38.4924 17.1228 38.2433 17.6122C37.9586 18.1751 37.6469 18.6936 37.3198 19.1735C37.1826 19.1176 37.0436 19.0636 36.9064 19.0137C35.2847 18.4007 33.5597 18.0134 31.7618 17.882C31.467 17.0765 31.2094 16.1837 31.0298 15.2031C30.6621 13.2022 30.7299 11.4607 30.8993 10.1528C31.9567 9.94788 32.7497 9.10755 32.7497 8.10074C32.7497 6.94064 31.6974 6.00001 30.3994 6.00001C29.1031 6.00001 28.0508 6.94064 28.0508 8.10074C28.0508 9.12504 28.8727 9.97686 29.9555 10.1629C30.191 11.4516 30.3452 13.256 29.9809 15.3475C29.8199 16.2683 29.5827 17.1074 29.3048 17.8668C27.5814 17.9652 25.9225 18.3019 24.3551 18.8446C24.1365 18.4943 23.9416 18.1265 23.7671 17.6927C23.4197 16.8339 23.2689 16.0284 23.2096 15.3581C24.2229 14.8242 24.7465 13.7041 24.3873 12.713C23.9958 11.6231 22.6877 11.1047 21.4693 11.5551C20.251 12.0056 19.5816 13.2541 19.9748 14.3439C20.3137 15.2846 21.3338 15.7978 22.3911 15.6318C22.6995 16.2732 22.9944 17.0131 23.2282 17.8532C23.3502 18.2983 23.4434 18.7333 23.5146 19.1589C22.0929 19.729 20.7576 20.4723 19.5325 21.3618C18.8869 20.8901 18.2277 20.3423 17.577 19.7002C16.0774 18.2224 15.0759 16.7067 14.4184 15.4924C15.1471 14.6771 15.2742 13.5101 14.6641 12.706C13.9643 11.7861 12.5646 11.6889 11.5361 12.4891C10.5075 13.2891 10.2398 14.6836 10.9396 15.6033C11.5564 16.4164 12.7222 16.5855 13.6932 16.0618C14.6438 16.922 15.8757 18.2795 16.8314 20.2304C17.2669 21.1226 17.5719 21.9904 17.7837 22.7997C17.5872 22.9825 17.3906 23.1711 17.2008 23.3634C16.2417 24.3343 15.3877 25.4091 14.654 26.5725C14.2219 26.4463 13.7745 26.2942 13.317 26.1075C11.8241 25.5002 10.6685 24.7262 9.83137 24.0519C10.1872 23.0029 9.84155 21.8709 8.95532 21.3803C7.95047 20.8228 6.63045 21.3039 6.00687 22.4551C5.38328 23.6064 5.69168 24.9918 6.69822 25.5492C7.58276 26.0398 8.70792 25.7263 9.3925 24.8613C10.4092 25.2169 11.6733 25.7876 12.9815 26.7244C13.3712 27.0042 13.7305 27.2921 14.0626 27.5817C13.0272 29.4679 12.3054 31.5527 11.9614 33.7661C11.0667 33.8436 10.1025 33.8803 9.06884 33.8482C7.59292 33.8021 6.25933 33.6271 5.0952 33.3992C5.06809 32.2417 4.30218 31.2726 3.26344 31.1623C2.12472 31.0413 1.08937 32.0014 0.955503 33.3073C0.818247 34.6128 1.635 35.7695 2.77372 35.8905C3.78873 35.9982 4.71733 35.2487 5.0054 34.1625C6.20172 34.1871 7.54379 34.2951 8.99768 34.5482C10.0025 34.7232 10.9362 34.9468 11.7953 35.1949C11.7547 35.6976 11.7343 36.206 11.7343 36.72C11.7343 37.941 11.8478 39.1352 12.0681 40.2926C11.0802 40.9546 9.71446 41.7058 7.97927 42.233C6.4576 42.6956 5.08674 42.853 3.99547 42.8868C3.60404 41.8575 2.62968 41.2156 1.64178 41.4083C0.516623 41.6284 -0.198462 42.8515 0.0489369 44.1405C0.294642 45.4297 1.40625 46.2963 2.53311 46.0761C3.50576 45.8861 4.1683 44.946 4.17169 43.862C5.29007 43.4941 6.60841 43.1491 8.10975 42.924C9.83646 42.6659 11.3836 42.6291 12.6849 42.6863C13.2086 44.2835 13.9406 45.7843 14.8438 47.158C14.4184 47.4994 13.9406 47.8367 13.4085 48.1518C12.3833 48.7554 11.4005 49.1308 10.5482 49.3735C9.96864 48.4412 8.89093 48.0033 7.96064 48.3843C6.89818 48.82 6.4288 50.1594 6.91851 51.3756C7.22352 52.1388 7.83355 52.6746 8.50796 52.8577C8.90617 52.9676 9.32811 52.9541 9.72293 52.792C9.84155 52.744 9.95169 52.6842 10.0534 52.6129C10.8311 52.0928 11.1599 51.0149 10.8311 49.9863C11.6377 49.5652 12.5799 49.1482 13.6678 48.8042C14.3642 48.5835 15.0302 48.4227 15.6571 48.3027C16.2282 49.0501 16.8552 49.7512 17.5296 50.3986C17.594 50.46 17.6567 50.5217 17.721 50.5795C17.2652 51.6088 16.5789 52.8596 15.5436 54.1279C14.5303 55.3689 13.4763 56.273 12.5901 56.9109C11.7004 56.273 10.5363 56.2864 9.81953 57.0014C9.00446 57.8169 9.0824 59.2353 9.99574 60.1701C10.9057 61.1029 12.3088 61.1993 13.1238 60.384C13.8304 59.6767 13.866 58.5126 13.2628 57.6085C13.9609 56.6893 14.8709 55.6523 16.0333 54.6289C17.2805 53.5303 18.5124 52.7169 19.585 52.1177C21.005 53.1391 22.5741 53.9659 24.25 54.5577C24.1822 55.1956 24.0687 55.8836 23.884 56.6063C23.4824 58.181 22.8775 59.4435 22.3284 60.3725C21.2541 60.1547 20.1917 60.6518 19.8273 61.6039C19.4139 62.6853 20.0595 63.9457 21.2694 64.4198C22.4792 64.8944 23.7959 64.4008 24.2093 63.3175C24.5703 62.377 24.128 61.3014 23.2113 60.7272C23.4705 59.6072 23.8789 58.2832 24.5296 56.861C24.8482 56.1671 25.1871 55.5349 25.5345 54.9584C26.824 55.3111 28.1694 55.5272 29.5555 55.5868C29.7826 56.6854 29.9656 57.9151 30.0537 59.2585C30.1859 61.257 30.0792 63.0263 29.8911 64.4875C28.8371 64.6943 28.0508 65.5346 28.0508 66.538C28.0508 67.6978 29.1031 68.6389 30.4011 68.6389C31.6991 68.6389 32.7497 67.6978 32.7497 66.538C32.7497 65.5381 31.9668 64.6994 30.9196 64.4892C30.7434 62.9955 30.6468 61.2301 30.7468 59.2585C30.8163 57.9285 30.9654 56.701 31.1552 55.5908C32.604 55.5349 34.0104 55.3092 35.3542 54.9336C35.4694 55.1338 35.5846 55.342 35.6931 55.556C36.4217 56.9688 36.8148 58.293 37.0284 59.353C36.093 59.9022 35.6185 60.9698 35.9523 61.922C36.3387 63.0148 37.6401 63.5431 38.8652 63.1035C40.087 62.6622 40.7648 61.4189 40.3801 60.326C40.0395 59.3569 38.9737 58.8326 37.8841 59.033C37.3842 58.1637 36.803 56.8512 36.6014 55.1704C36.5759 54.9624 36.5573 54.758 36.5454 54.5577C38.0434 54.0334 39.4515 53.3184 40.7461 52.4433C41.5832 53.1314 42.4644 53.9525 43.3404 54.9277C44.6859 56.4272 45.6636 57.9055 46.3702 59.162C45.6535 59.9755 45.528 61.1338 46.1364 61.9336C46.8362 62.8528 48.2342 62.9493 49.2645 62.1495C50.293 61.3495 50.5625 59.9562 49.8626 59.0347C49.2577 58.2409 48.1291 58.0596 47.17 58.5435C46.1381 57.4853 44.9943 56.1458 43.8911 54.4998C43.1778 53.4359 42.5898 52.403 42.1034 51.4334C42.6253 51.0075 43.1252 50.5545 43.598 50.0747C44.3758 49.2882 45.0858 48.4344 45.7127 47.521C46.8718 47.8485 48.2122 48.3284 49.6322 49.0492C51.0013 49.7412 52.1417 50.5024 53.0619 51.2117C52.7128 52.241 53.0449 53.3549 53.9074 53.8522C54.9038 54.4286 56.2306 53.9698 56.8762 52.8308C57.5201 51.6899 57.2338 50.3 56.2374 49.7239C55.3664 49.2209 54.2412 49.5081 53.5414 50.3522C52.5145 49.9569 51.2691 49.3577 49.9778 48.4383C48.6358 47.4843 47.6242 46.4609 46.8887 45.578C47.3852 44.6376 47.8038 43.6489 48.1376 42.6196C48.6951 42.639 49.2814 42.6891 49.8931 42.7815C51.4605 43.0207 52.767 43.4697 53.7719 43.9169C53.6855 45.0153 54.2989 46.0214 55.2732 46.2738C56.3814 46.5629 57.5456 45.767 57.8692 44.4949C58.1912 43.2228 57.5523 41.9587 56.4441 41.6696C55.4647 41.415 54.4463 42.0012 53.9972 43.0128C52.928 42.9242 51.5622 42.6872 50.0677 42.1011C49.4983 41.8777 48.9747 41.6289 48.4969 41.3688C48.7358 40.4148 48.9035 39.4336 48.9899 38.4278C49.9558 38.3487 50.9844 38.2987 52.0638 38.2966C53.9735 38.2908 55.7053 38.4295 57.227 38.6339C57.41 39.6921 58.2149 40.4977 59.1977 40.5285C60.3432 40.5613 61.304 39.5243 61.3396 38.2117C61.3769 36.8992 60.4788 35.8084 59.3316 35.7756Z" fill="#FA5752" fill-opacity="0.9"/>
<path d="M321.581 20.3223C320.993 20.3048 320.485 20.7663 320.342 21.4007C319.43 21.4732 318.389 21.4977 317.247 21.4241C316.609 21.3821 316.005 21.3142 315.439 21.2302C315.442 21.1191 315.444 21.007 315.444 20.8948C315.444 20.3491 315.407 19.8129 315.334 19.2883C315.621 19.0629 315.982 18.8257 316.418 18.6222C317.174 18.2672 317.884 18.1409 318.429 18.1047C318.697 18.7275 319.311 19.0896 319.902 18.932C320.565 18.7544 320.944 17.9867 320.749 17.2167C320.553 16.4468 319.857 15.9654 319.194 16.143C318.589 16.3054 318.22 16.9574 318.307 17.6549C317.829 17.933 317.119 18.2344 316.239 18.2567C315.804 18.2683 315.424 18.2087 315.116 18.1315C314.92 17.3173 314.639 16.5366 314.281 15.8006C314.66 15.4501 315.108 15.0785 315.633 14.7198C316.392 14.1988 317.125 13.826 317.768 13.5586C318.188 14.0608 318.857 14.228 319.373 13.9218C319.966 13.5714 320.134 12.7265 319.747 12.0373C319.359 11.3478 318.561 11.0745 317.969 11.4261C317.452 11.7311 317.26 12.4089 317.472 13.0328C316.92 13.4721 316.24 13.9359 315.425 14.3496C314.87 14.6323 314.339 14.8473 313.859 15.0108C313.466 14.3366 313.005 13.7081 312.49 13.1344C312.688 12.396 313.024 11.5336 313.595 10.6691C314.131 9.86054 314.728 9.27056 315.234 8.85562C315.792 9.20975 316.493 9.15477 316.892 8.68859C317.346 8.16056 317.241 7.30647 316.659 6.78063C316.077 6.25374 315.237 6.25489 314.786 6.78291C314.384 7.2492 314.418 7.96775 314.832 8.49235C314.505 9.04615 314.01 9.73311 313.283 10.3874C312.482 11.1096 311.675 11.5419 311.062 11.799C310.365 11.2509 309.604 10.7858 308.791 10.4179C308.909 10.0826 309.065 9.74485 309.27 9.41307C309.434 9.1502 309.611 8.91872 309.79 8.71676C310.41 8.97495 311.102 8.789 311.414 8.24808C311.765 7.64408 311.509 6.82387 310.841 6.41724C310.175 6.01062 309.35 6.1707 309 6.77595C308.693 7.30762 308.855 8.00621 309.35 8.44318C309.247 8.72362 309.121 9.01466 308.972 9.31131C308.802 9.65255 308.616 9.96687 308.42 10.2578C308.338 10.2239 308.255 10.1912 308.173 10.1609C307.203 9.78934 306.172 9.55453 305.097 9.47491C304.921 8.98659 304.767 8.44537 304.659 7.85092C304.44 6.63792 304.48 5.58217 304.581 4.7893C305.214 4.66509 305.688 4.15567 305.688 3.54532C305.688 2.84205 305.059 2.27182 304.282 2.27182C303.507 2.27182 302.878 2.84205 302.878 3.54532C302.878 4.16627 303.37 4.68266 304.017 4.79543C304.158 5.57666 304.25 6.67055 304.032 7.93844C303.936 8.49661 303.794 9.00531 303.628 9.46567C302.598 9.52533 301.606 9.72947 300.669 10.0584C300.538 9.84609 300.421 9.62313 300.317 9.36016C300.109 8.83951 300.019 8.3512 299.984 7.94489C300.59 7.62121 300.903 6.94215 300.688 6.34137C300.454 5.68061 299.672 5.36639 298.943 5.63944C298.215 5.9125 297.815 6.66941 298.05 7.33006C298.252 7.90029 298.862 8.21139 299.494 8.11078C299.679 8.49962 299.855 8.94814 299.995 9.45745C300.068 9.72729 300.124 9.99099 300.166 10.249C299.316 10.5946 298.518 11.0452 297.785 11.5844C297.399 11.2985 297.005 10.9664 296.616 10.5771C295.72 9.68124 295.121 8.76239 294.728 8.02627C295.163 7.53203 295.239 6.82459 294.875 6.3371C294.456 5.77945 293.619 5.72052 293.004 6.20562C292.389 6.69061 292.229 7.53597 292.648 8.09352C293.017 8.58642 293.714 8.6889 294.294 8.37146C294.862 8.89294 295.599 9.71585 296.17 10.8985C296.431 11.4394 296.613 11.9655 296.74 12.4561C296.622 12.5669 296.505 12.6812 296.391 12.7978C295.818 13.3864 295.307 14.038 294.869 14.7432C294.61 14.6667 294.343 14.5745 294.069 14.4613C293.177 14.0932 292.486 13.624 291.985 13.2152C292.198 12.5793 291.991 11.893 291.461 11.5956C290.861 11.2576 290.071 11.5493 289.699 12.2472C289.326 12.9451 289.51 13.785 290.112 14.1229C290.641 14.4203 291.313 14.2303 291.723 13.7059C292.331 13.9215 293.086 14.2674 293.869 14.8353C294.102 15.005 294.316 15.1795 294.515 15.355C293.896 16.4985 293.464 17.7623 293.259 19.1041C292.724 19.1511 292.147 19.1733 291.529 19.1539C290.647 19.126 289.85 19.0198 289.154 18.8817C289.137 18.18 288.679 17.5925 288.058 17.5257C287.378 17.4523 286.758 18.0344 286.678 18.826C286.596 19.6174 287.085 20.3186 287.766 20.392C288.372 20.4572 288.928 20.0029 289.1 19.3444C289.815 19.3593 290.617 19.4248 291.487 19.5782C292.088 19.6843 292.646 19.8199 293.159 19.9703C293.135 20.275 293.123 20.5832 293.123 20.8948C293.123 21.635 293.191 22.359 293.323 23.0606C292.732 23.4619 291.915 23.9173 290.878 24.2369C289.968 24.5173 289.148 24.6128 288.496 24.6332C288.262 24.0093 287.679 23.6201 287.089 23.7369C286.416 23.8704 285.989 24.6118 286.136 25.3933C286.283 26.1748 286.948 26.7001 287.622 26.5667C288.203 26.4515 288.599 25.8816 288.601 25.2245C289.27 25.0014 290.058 24.7923 290.956 24.6558C291.988 24.4994 292.913 24.477 293.691 24.5117C294.004 25.4799 294.442 26.3898 294.982 27.2225C294.728 27.4295 294.442 27.6339 294.124 27.825C293.511 28.1909 292.923 28.4185 292.414 28.5656C292.067 28.0004 291.423 27.735 290.867 27.9659C290.231 28.23 289.951 29.042 290.244 29.7793C290.426 30.242 290.791 30.5668 291.194 30.6778C291.432 30.7444 291.684 30.7362 291.92 30.638C291.991 30.6089 292.057 30.5726 292.118 30.5294C292.583 30.2141 292.779 29.5606 292.583 28.9371C293.065 28.6818 293.628 28.429 294.279 28.2205C294.695 28.0867 295.093 27.9892 295.468 27.9165C295.81 28.3695 296.185 28.7946 296.588 29.187C296.626 29.2243 296.664 29.2617 296.702 29.2967C296.43 29.9207 296.019 30.6789 295.4 31.4478C294.795 32.2001 294.164 32.7482 293.635 33.1349C293.103 32.7482 292.407 32.7563 291.978 33.1898C291.491 33.6841 291.537 34.544 292.083 35.1107C292.628 35.6762 293.466 35.7346 293.954 35.2403C294.376 34.8116 294.397 34.1059 294.037 33.5578C294.454 33.0006 294.998 32.3719 295.693 31.7515C296.439 31.0855 297.175 30.5924 297.817 30.2292C298.666 30.8484 299.604 31.3496 300.606 31.7084C300.565 32.095 300.497 32.5122 300.387 32.9503C300.147 33.9049 299.785 34.6702 299.457 35.2334C298.815 35.1014 298.179 35.4027 297.962 35.9799C297.714 36.6354 298.1 37.3995 298.824 37.6869C299.547 37.9746 300.334 37.6754 300.582 37.0187C300.797 36.4486 300.533 35.7965 299.985 35.4484C300.14 34.7695 300.384 33.9668 300.773 33.1046C300.963 32.684 301.166 32.3007 301.374 31.9513C302.145 32.1651 302.949 32.2961 303.778 32.3322C303.914 32.9982 304.023 33.7437 304.076 34.5581C304.155 35.7696 304.091 36.8422 303.979 37.728C303.348 37.8533 302.878 38.3628 302.878 38.971C302.878 39.6741 303.507 40.2446 304.284 40.2446C305.06 40.2446 305.688 39.6741 305.688 38.971C305.688 38.3648 305.22 37.8565 304.594 37.729C304.488 36.8235 304.43 35.7533 304.49 34.5581C304.532 33.7518 304.621 33.0076 304.734 32.3346C305.601 32.3007 306.441 32.1639 307.245 31.9362C307.314 32.0576 307.383 32.1838 307.447 32.3135C307.883 33.17 308.118 33.9728 308.246 34.6153C307.687 34.9483 307.403 35.5955 307.602 36.1727C307.833 36.8352 308.612 37.1555 309.344 36.889C310.075 36.6214 310.48 35.8677 310.25 35.2052C310.046 34.6177 309.409 34.2999 308.757 34.4214C308.459 33.8944 308.111 33.0987 307.991 32.0798C307.975 31.9537 307.964 31.8298 307.957 31.7084C308.853 31.3905 309.695 30.9571 310.469 30.4266C310.969 30.8437 311.496 31.3415 312.02 31.9327C312.824 32.8417 313.409 33.7378 313.831 34.4995C313.403 34.9927 313.328 35.6949 313.691 36.1798C314.11 36.737 314.946 36.7955 315.562 36.3106C316.177 35.8256 316.338 34.981 315.919 34.4224C315.558 33.9412 314.883 33.8313 314.309 34.1246C313.692 33.4831 313.009 32.6711 312.349 31.6732C311.922 31.0283 311.571 30.4021 311.28 29.8143C311.592 29.5561 311.891 29.2815 312.174 28.9907C312.639 28.5139 313.063 27.9963 313.438 27.4426C314.131 27.6411 314.932 27.932 315.781 28.369C316.6 28.7885 317.282 29.2499 317.832 29.6799C317.623 30.3039 317.822 30.9792 318.338 31.2806C318.933 31.6301 319.727 31.352 320.113 30.6615C320.498 29.9698 320.326 29.1273 319.731 28.778C319.21 28.4731 318.537 28.6472 318.119 29.1589C317.505 28.9193 316.76 28.556 315.988 27.9987C315.186 27.4203 314.581 26.7999 314.141 26.2647C314.438 25.6946 314.688 25.0953 314.888 24.4713C315.221 24.483 315.572 24.5134 315.937 24.5694C316.875 24.7144 317.656 24.9866 318.256 25.2577C318.205 25.9236 318.572 26.5335 319.154 26.6865C319.817 26.8618 320.513 26.3793 320.706 25.6081C320.899 24.837 320.517 24.0706 319.854 23.8953C319.269 23.741 318.66 24.0964 318.391 24.7096C317.752 24.6559 316.935 24.5122 316.042 24.157C315.701 24.0215 315.388 23.8707 315.103 23.713C315.245 23.1347 315.346 22.5398 315.397 21.9301C315.975 21.8822 316.59 21.8518 317.235 21.8506C318.377 21.8471 319.412 21.9311 320.322 22.055C320.432 22.6966 320.913 23.1849 321.501 23.2036C322.185 23.2235 322.76 22.5948 322.781 21.7991C322.803 21.0035 322.266 20.3422 321.581 20.3223" fill="#FA5752" fill-opacity="0.75"/>
<path d="M361.292 135.499C359.963 135.46 358.818 136.501 358.493 137.933C356.436 138.096 354.086 138.151 351.507 137.985C350.072 137.89 348.708 137.737 347.432 137.548C347.439 137.297 347.443 137.044 347.443 136.791C347.443 135.56 347.354 134.35 347.192 133.166C347.842 132.657 348.655 132.122 349.641 131.663C351.348 130.862 352.945 130.577 354.178 130.495C354.782 131.901 356.171 132.718 357.5 132.362C358.998 131.961 359.857 130.229 359.412 128.492C358.97 126.754 357.401 125.668 355.903 126.069C354.539 126.435 353.705 127.906 353.903 129.48C352.825 130.108 351.22 130.788 349.234 130.838C348.256 130.865 347.397 130.73 346.701 130.556C346.259 128.718 345.626 126.957 344.817 125.297C345.672 124.506 346.683 123.667 347.867 122.858C349.581 121.682 351.235 120.841 352.687 120.237C353.634 121.371 355.143 121.748 356.309 121.057C357.648 120.266 358.023 118.36 357.15 116.804C356.277 115.249 354.479 114.632 353.139 115.426C351.977 116.114 351.538 117.643 352.019 119.051C350.772 120.042 349.238 121.089 347.397 122.022C346.146 122.66 344.948 123.145 343.863 123.514C342.976 121.993 341.941 120.575 340.774 119.28C341.223 117.614 341.979 115.668 343.269 113.717C344.481 111.893 345.824 110.562 346.966 109.626C348.224 110.425 349.807 110.301 350.708 109.249C351.733 108.057 351.5 106.13 350.181 104.944C348.87 103.755 346.976 103.757 345.955 104.949C345.054 106.001 345.125 107.622 346.061 108.806C345.322 110.056 344.206 111.606 342.566 113.082C340.757 114.711 338.94 115.687 337.555 116.267C335.979 115.03 334.262 113.981 332.428 113.151C332.693 112.394 333.046 111.632 333.509 110.884C333.88 110.29 334.279 109.768 334.682 109.312C336.078 109.895 337.644 109.476 338.347 108.255C339.138 106.892 338.559 105.041 337.053 104.124C335.548 103.206 333.689 103.567 332.898 104.933C332.205 106.133 332.569 107.709 333.689 108.695C333.456 109.328 333.173 109.985 332.834 110.654C332.449 111.424 332.032 112.133 331.59 112.789C331.403 112.713 331.219 112.639 331.032 112.571C328.848 111.732 326.519 111.203 324.091 111.023C323.692 109.921 323.346 108.7 323.102 107.358C322.607 104.622 322.699 102.239 322.929 100.45C324.356 100.17 325.424 99.0207 325.424 97.6436C325.424 96.0565 324.007 94.7699 322.257 94.7699C320.505 94.7699 319.084 96.0565 319.084 97.6436C319.084 99.0443 320.19 100.209 321.653 100.464C321.971 102.227 322.18 104.695 321.692 107.556C321.473 108.815 321.151 109.963 320.777 111.002C318.448 111.137 316.211 111.597 314.098 112.34C313.805 111.861 313.54 111.357 313.303 110.764C312.836 109.589 312.635 108.487 312.554 107.571C313.921 106.84 314.624 105.308 314.144 103.952C313.614 102.462 311.85 101.752 310.204 102.369C308.56 102.985 307.656 104.693 308.189 106.184C308.649 107.47 310.023 108.172 311.448 107.945C311.864 108.822 312.264 109.834 312.575 110.984C312.744 111.592 312.868 112.188 312.964 112.77C311.045 113.549 309.246 114.566 307.592 115.783C306.723 115.138 305.832 114.388 304.952 113.51C302.928 111.489 301.578 109.415 300.691 107.754C301.673 106.639 301.846 105.043 301.023 103.943C300.079 102.684 298.189 102.552 296.8 103.646C295.415 104.741 295.054 106.648 295.994 107.906C296.832 109.018 298.401 109.249 299.715 108.533C300.995 109.71 302.659 111.567 303.945 114.235C304.535 115.456 304.945 116.643 305.235 117.75C304.97 118 304.701 118.258 304.444 118.521C303.154 119.849 301.998 121.319 301.009 122.91C300.426 122.738 299.821 122.53 299.203 122.274C297.192 121.444 295.634 120.385 294.503 119.462C294.984 118.028 294.514 116.48 293.319 115.808C291.966 115.045 290.185 115.704 289.344 117.279C288.499 118.853 288.916 120.748 290.277 121.511C291.467 122.182 292.987 121.753 293.909 120.57C295.28 121.056 296.991 121.837 298.754 123.118C299.281 123.501 299.761 123.895 300.21 124.291C298.814 126.871 297.839 129.723 297.376 132.751C296.171 132.856 294.87 132.907 293.475 132.863C291.482 132.8 289.683 132.56 288.11 132.249C288.075 130.665 287.043 129.34 285.644 129.189C284.103 129.023 282.707 130.337 282.523 132.123C282.343 133.909 283.442 135.491 284.979 135.656C286.35 135.804 287.601 134.779 287.994 133.293C289.605 133.326 291.414 133.474 293.376 133.82C294.736 134.06 295.991 134.365 297.153 134.705C297.097 135.393 297.072 136.088 297.072 136.791C297.072 138.461 297.224 140.094 297.521 141.678C296.185 142.584 294.347 143.611 292.005 144.333C289.951 144.965 288.103 145.18 286.63 145.227C286.1 143.819 284.785 142.94 283.453 143.204C281.937 143.505 280.972 145.178 281.304 146.941C281.636 148.705 283.138 149.89 284.654 149.589C285.969 149.329 286.863 148.043 286.866 146.561C288.375 146.057 290.156 145.585 292.181 145.278C294.506 144.925 296.595 144.874 298.355 144.952C299.058 147.137 300.048 149.19 301.267 151.069C300.691 151.536 300.051 151.997 299.327 152.428C297.945 153.254 296.62 153.768 295.468 154.1C294.69 152.824 293.234 152.225 291.976 152.746C290.545 153.342 289.913 155.175 290.57 156.838C290.983 157.882 291.807 158.615 292.718 158.866C293.256 159.016 293.824 158.998 294.358 158.776C294.514 158.71 294.666 158.628 294.803 158.531C295.849 157.819 296.295 156.345 295.853 154.938C296.941 154.362 298.213 153.791 299.676 153.321C300.62 153.019 301.518 152.799 302.362 152.635C303.133 153.657 303.981 154.616 304.889 155.502C304.974 155.586 305.062 155.67 305.147 155.749C304.532 157.157 303.606 158.868 302.21 160.603C300.843 162.301 299.422 163.537 298.224 164.41C297.026 163.537 295.454 163.556 294.489 164.534C293.386 165.649 293.492 167.59 294.726 168.868C295.952 170.144 297.846 170.276 298.945 169.161C299.903 168.193 299.949 166.601 299.136 165.364C300.076 164.106 301.302 162.688 302.867 161.288C304.553 159.786 306.214 158.673 307.663 157.853C309.578 159.25 311.695 160.381 313.953 161.191C313.865 162.063 313.713 163.004 313.462 163.993C312.918 166.147 312.105 167.874 311.366 169.145C309.914 168.847 308.479 169.527 307.988 170.83C307.433 172.309 308.306 174.033 309.939 174.681C311.568 175.33 313.342 174.655 313.903 173.173C314.388 171.887 313.794 170.416 312.554 169.63C312.903 168.098 313.458 166.287 314.335 164.341C314.766 163.392 315.222 162.527 315.688 161.739C317.43 162.222 319.243 162.517 321.116 162.599C321.42 164.102 321.667 165.783 321.787 167.621C321.968 170.355 321.823 172.775 321.568 174.773C320.148 175.056 319.084 176.205 319.084 177.579C319.084 179.166 320.501 180.452 322.257 180.452C324.007 180.452 325.424 179.166 325.424 177.579C325.424 176.21 324.367 175.063 322.954 174.776C322.717 172.733 322.59 170.318 322.724 167.621C322.816 165.802 323.017 164.122 323.272 162.604C325.229 162.527 327.127 162.219 328.94 161.705C329.095 161.979 329.247 162.264 329.396 162.557C330.382 164.489 330.912 166.3 331.198 167.75C329.936 168.502 329.293 169.962 329.749 171.265C330.265 172.759 332.025 173.482 333.675 172.88C335.322 172.277 336.241 170.576 335.721 169.082C335.262 167.756 333.823 167.038 332.353 167.313C331.678 166.124 330.894 164.328 330.622 162.029C330.587 161.744 330.562 161.465 330.548 161.191C332.565 160.474 334.467 159.496 336.216 158.299C337.343 159.24 338.531 160.363 339.711 161.697C341.527 163.748 342.849 165.77 343.803 167.489C342.835 168.602 342.669 170.186 343.485 171.28C344.432 172.538 346.319 172.67 347.708 171.575C349.093 170.482 349.453 168.576 348.513 167.315C347.697 166.229 346.174 165.981 344.881 166.643C343.488 165.195 341.944 163.363 340.456 161.112C339.495 159.656 338.7 158.244 338.046 156.917C338.75 156.335 339.421 155.715 340.064 155.059C341.11 153.983 342.068 152.815 342.916 151.565C344.481 152.014 346.287 152.67 348.202 153.656C350.051 154.603 351.591 155.644 352.832 156.614C352.362 158.022 352.807 159.546 353.973 160.226C355.316 161.014 357.108 160.387 357.977 158.829C358.846 157.268 358.458 155.367 357.115 154.579C355.942 153.891 354.418 154.284 353.478 155.438C352.093 154.898 350.411 154.078 348.669 152.82C346.86 151.515 345.492 150.115 344.503 148.908C345.171 147.622 345.736 146.269 346.188 144.861C346.937 144.888 347.733 144.956 348.552 145.083C350.669 145.41 352.432 146.024 353.789 146.635C353.673 148.138 354.5 149.514 355.811 149.86C357.309 150.255 358.878 149.166 359.316 147.427C359.751 145.687 358.892 143.957 357.39 143.561C356.076 143.213 354.701 144.015 354.09 145.399C352.652 145.278 350.803 144.953 348.786 144.152C348.022 143.846 347.316 143.506 346.672 143.15C346.994 141.845 347.22 140.503 347.337 139.127C348.641 139.019 350.026 138.95 351.485 138.947C354.058 138.94 356.397 139.129 358.451 139.409C358.698 140.856 359.783 141.958 361.108 142.001C362.656 142.045 363.953 140.627 363.999 138.832C364.048 137.037 362.836 135.544 361.292 135.499" fill="#FA5752" fill-opacity="0.92"/>
<path d="M270.966 93.0811V226.831" stroke="#925D51" stroke-width="5.81" stroke-miterlimit="10"/>
<path d="M244.875 92.6053C244.875 92.6053 267.639 102.256 296.823 91.4699L281.063 55.706L257.718 55.138L244.875 92.6053Z" fill="#AC6352"/>
<path d="M287.241 69.7264C278.069 80.1145 263.172 84.4891 247.542 84.8265L244.875 92.6053C244.875 92.6053 267.639 102.256 296.823 91.4699L287.241 69.7264Z" fill="#984B39"/>
<rect x="68.5597" y="247.398" width="235.751" height="5.49763" rx="2.74881" fill="#925D51"/>
<path fill-rule="evenodd" clip-rule="evenodd" d="M186.641 127.762C186.379 127.721 186.112 127.701 185.842 127.701H125.929H125.877C121.738 127.701 118.392 127.701 118.392 142.902V224.382C118.392 222.334 119.45 222.908 121.112 223.81C122.418 224.519 124.097 225.429 125.929 225.429H185.842C186.416 225.429 186.975 225.34 187.512 225.195H246.212C248.758 225.195 251.092 224.287 252.907 223.581C255.218 222.682 256.688 222.109 256.688 224.151V142.917C256.688 127.762 252.037 127.762 246.284 127.762H246.212H186.641Z" fill="#F5C827"/>
<g opacity="0.699997">
<g opacity="0.699997">
<path d="M123.208 170.143V224.233C123.208 220.346 126.238 225.347 129.976 225.347H183.775C186.499 225.347 188.845 222.695 189.918 222.758V224.233C189.918 223.494 190.028 223.077 190.229 222.885C190.432 223.077 190.543 223.494 190.543 224.233V222.757C191.609 222.705 193.929 225.347 196.622 225.347H249.913C253.616 225.347 256.617 220.346 256.617 224.233V137.634C256.617 136.768 256.607 135.957 256.59 135.181L123.208 170.143Z" fill="#DCB21D"/>
</g>
</g>
<path d="M129.189 210.347C129.189 215.836 126.051 220.287 122.179 220.287H106.757C102.886 220.287 99.7471 215.836 99.7471 210.347V174.563C99.7471 169.073 102.886 164.623 106.757 164.623H122.179C126.051 164.623 129.189 169.073 129.189 174.563V210.347Z" fill="#EBAFB2"/>
<path d="M135.601 214.311C135.601 220.282 131.047 225.122 125.43 225.122H103.054C97.4366 225.122 92.8831 220.282 92.8831 214.311V175.391C92.8831 169.42 97.4366 164.58 103.054 164.58H125.43C131.047 164.58 135.601 169.42 135.601 175.391V214.311Z" fill="#CAA41E"/>
<path d="M292.631 214.404C292.631 220.393 288.141 225.249 282.601 225.249H260.535C254.996 225.249 250.505 220.393 250.505 214.404V175.362C250.505 169.372 254.996 164.517 260.535 164.517H282.601C288.141 164.517 292.631 169.372 292.631 175.362V214.404Z" fill="#CAA41E"/>
<path d="M109.478 260.1C109.478 261.998 108.24 263.537 106.713 263.537C105.185 263.537 103.947 261.998 103.947 260.1V248.227C103.947 246.329 105.185 244.791 106.713 244.791C108.24 244.791 109.478 246.329 109.478 248.227V260.1Z" fill="#925D51"/>
<path d="M281.27 259.486C281.27 261.384 280.031 262.922 278.504 262.922C276.976 262.922 275.738 261.384 275.738 259.486V247.612C275.738 245.715 276.976 244.176 278.504 244.176C280.031 244.176 281.27 245.715 281.27 247.612V259.486Z" fill="#925D51"/>
<path d="M285.899 164.58H278.143C274.249 164.58 271.092 169.032 271.092 174.525V224.249H113.511V174.525C113.511 169.032 110.354 164.58 106.46 164.58H98.705C94.811 164.58 91.6544 169.032 91.6544 174.525V242.647C91.6544 245.521 92.5243 248.103 93.9068 249.919C95.1934 251.865 97.0224 253.088 99.0578 253.088L285.899 252.591C289.793 252.591 292.949 248.139 292.949 242.647V174.525C292.949 169.032 289.793 164.58 285.899 164.58Z" fill="#F5C827"/>
<path d="M153.674 169.804H124.978C123.886 169.804 123.001 170.837 123.001 172.111V205.589C123.001 206.862 123.886 207.895 124.978 207.895H153.674C154.765 207.895 155.65 206.862 155.65 205.589V172.111C155.65 170.837 154.765 169.804 153.674 169.804Z" fill="white"/>
<path d="M264.719 173.443L238.623 168.889C237.631 168.716 236.648 169.594 236.428 170.852L230.654 203.9C230.435 205.157 231.061 206.317 232.054 206.49L258.149 211.044C259.142 211.218 260.125 210.339 260.345 209.082L266.118 176.034C266.338 174.776 265.711 173.617 264.719 173.443Z" fill="white"/>
<path fill-rule="evenodd" clip-rule="evenodd" d="M261.754 231.845C267.052 231.845 271.347 227.052 271.347 221.14V211.505C271.347 205.593 267.052 200.8 261.754 200.8H187.66C187.127 200.589 186.57 200.476 185.996 200.476H120.145C116.376 200.476 113.321 205.319 113.321 211.293V221.028C113.321 227.002 116.376 231.845 120.145 231.845H170.568C170.584 231.845 170.599 231.845 170.615 231.845H261.754Z" fill="#FFE792"/>
<path d="M169.507 111.652C168.524 111.573 167.608 111.124 166.935 110.403C165.177 108.518 162.66 104.133 166.266 96.3449C172.979 81.8419 197.53 84.0177 203.386 94.5561C207.552 102.053 211.697 103.541 209.461 105.796C207.303 107.973 181.733 112.639 169.507 111.652Z" fill="#FF504A"/>
<path d="M212.779 198.784C212.753 198.788 212.724 198.791 212.698 198.795C207.388 199.568 202.004 200.279 196.604 200.696C196.295 200.719 195.985 200.743 195.675 200.762C189.961 201.168 184.231 201.229 178.561 200.671C176.701 200.489 174.847 200.236 173.012 199.9C168.909 199.151 166.143 195.273 166.808 191.157C167.433 187.292 167.842 183.631 168.111 180.189C168.151 179.677 168.19 179.172 168.222 178.671C168.494 174.654 168.583 170.954 168.612 167.593C168.613 167.307 168.615 167.024 168.617 166.745C168.617 166.618 168.619 166.492 168.619 166.369C168.62 166.177 168.62 165.987 168.62 165.799C168.623 165.671 168.623 165.544 168.623 165.421C168.623 165.158 168.624 164.903 168.623 164.647C168.627 163.862 168.624 163.098 168.627 162.357V162.16C168.628 159.596 168.638 157.299 168.741 155.287C168.745 155.195 168.749 155.105 168.756 155.015C168.779 154.597 168.8 154.182 168.82 153.774C168.838 153.377 168.858 152.985 168.872 152.597C168.915 151.507 168.944 150.456 168.961 149.453C168.972 148.609 168.972 147.801 168.959 147.033C168.943 146.182 168.912 145.385 168.864 144.646C168.846 144.401 168.829 144.149 168.809 143.89C168.779 143.497 168.746 143.09 168.712 142.671C168.692 142.417 168.67 142.161 168.644 141.9C168.633 141.787 168.624 141.671 168.613 141.555C168.612 141.526 168.608 141.498 168.606 141.471C168.591 141.31 168.577 141.15 168.562 140.986C168.546 140.827 168.53 140.669 168.515 140.508C168.49 140.229 168.462 139.944 168.431 139.656C168.299 138.314 168.145 136.905 167.989 135.462C167.938 135.009 167.888 134.55 167.837 134.09C167.756 133.378 167.675 132.658 167.596 131.941C167.541 131.478 167.489 131.015 167.437 130.553C166.645 123.591 165.9 116.925 166.165 114.81C166.624 111.147 184.363 101.479 184.363 101.479L195.012 101.144C195.012 101.144 209.958 107.165 212.716 110.799C212.73 110.817 212.743 110.836 212.756 110.852C213.382 111.709 213.775 112.898 214.001 114.368C214.203 115.661 214.274 117.169 214.259 118.86C214.253 120.064 214.2 121.361 214.122 122.737C214.04 124.196 213.929 125.744 213.806 127.365C213.771 127.836 213.734 128.314 213.696 128.797C213.658 129.289 213.622 129.784 213.584 130.286C213.56 130.61 213.536 130.937 213.512 131.266C213.447 132.132 213.384 133.014 213.326 133.907C213.308 134.196 213.287 134.487 213.269 134.779C213.256 134.963 213.246 135.15 213.236 135.335C213.224 135.525 213.213 135.714 213.203 135.904V135.908C213.193 136.083 213.182 136.257 213.174 136.431C213.161 136.622 213.152 136.812 213.143 137.004C213.125 137.354 213.106 137.705 213.092 138.06C213.077 138.352 213.066 138.647 213.055 138.941C213.05 138.993 213.048 139.048 213.048 139.101C213.038 139.291 213.031 139.482 213.026 139.671L213.023 139.77L213.021 139.818C213.013 140.066 213.005 140.319 212.998 140.57C212.988 140.871 212.98 141.172 212.973 141.471C212.97 141.61 212.969 141.752 212.966 141.893C212.963 142.017 212.961 142.145 212.959 142.271C212.959 142.335 212.958 142.397 212.958 142.463C212.954 142.636 212.951 142.809 212.95 142.988C212.947 143.284 212.947 143.583 212.947 143.89V144.375C212.947 145.224 212.956 146.111 212.973 147.033C212.979 147.414 212.988 147.801 212.997 148.193C213.006 148.608 213.017 149.028 213.027 149.453C213.055 150.347 213.084 151.26 213.12 152.189C213.124 152.325 213.128 152.46 213.134 152.597C213.137 152.652 213.138 152.707 213.14 152.763C213.151 153.066 213.163 153.37 213.177 153.678C213.197 154.121 213.217 154.568 213.235 155.015C213.255 155.499 213.288 156.012 213.331 156.553C213.384 157.229 213.451 157.946 213.532 158.704C213.55 158.882 213.571 159.061 213.592 159.241C213.626 159.532 213.658 159.828 213.699 160.129C213.721 160.318 213.743 160.506 213.769 160.697C213.784 160.818 213.8 160.94 213.816 161.062C213.875 161.518 213.938 161.986 214.006 162.463C214.013 162.516 214.021 162.568 214.027 162.621C214.062 162.863 214.1 163.105 214.133 163.352C214.201 163.823 214.275 164.303 214.35 164.789C214.372 164.926 214.393 165.065 214.414 165.202C214.544 166.031 214.683 166.88 214.829 167.748C214.854 167.9 214.882 168.055 214.908 168.21C214.966 168.552 215.026 168.896 215.086 169.243C215.296 170.452 215.518 171.688 215.75 172.944C216.021 174.397 216.303 175.874 216.596 177.363C216.835 178.588 217.083 179.819 217.334 181.051C217.92 183.931 218.53 186.811 219.132 189.589C220.071 193.915 217.159 198.145 212.779 198.784Z" fill="white"/>
<path d="M214.002 114.368C206.222 116.036 199.005 116.511 193.305 116.511C192.269 116.511 191.284 116.496 190.354 116.47C181.548 116.212 175.82 114.936 175.579 114.883L175.994 113.049L176.408 111.217H176.409C176.521 111.242 182.14 112.478 190.564 112.716C196.254 112.876 204.116 112.591 212.716 110.799C212.731 110.817 212.744 110.835 212.757 110.853C213.382 111.709 213.776 112.898 214.002 114.368Z" fill="#1DB776" fill-opacity="0.56"/>
<path d="M214.259 118.86C214.252 120.064 214.199 121.361 214.121 122.737C206.513 124.354 199.42 124.831 193.709 124.831C192.295 124.831 190.966 124.802 189.735 124.753C180.934 124.408 175.221 123.075 174.982 123.018L175.847 119.36C175.904 119.374 181.52 120.678 189.982 121.001C196.13 121.236 204.822 120.976 214.259 118.86Z" fill="#1DB776" fill-opacity="0.56"/>
<path d="M213.806 127.365C213.771 127.836 213.734 128.314 213.697 128.797C213.659 129.289 213.622 129.784 213.585 130.286C213.561 130.61 213.537 130.937 213.512 131.266C206.344 132.714 199.64 133.158 194.121 133.158C192.318 133.158 190.644 133.111 189.119 133.037C180.325 132.605 174.626 131.214 174.387 131.156L175.289 127.507C175.344 127.52 180.947 128.88 189.403 129.287C195.571 129.584 204.307 129.41 213.806 127.365Z" fill="#1DB776" fill-opacity="0.56"/>
<path d="M213.203 135.904V135.908C213.194 136.084 213.183 136.257 213.174 136.431C213.162 136.622 213.153 136.812 213.144 137.004C213.126 137.354 213.108 137.705 213.093 138.06C213.079 138.352 213.066 138.647 213.056 138.941C213.052 138.993 213.049 139.048 213.049 139.101C213.039 139.291 213.032 139.482 213.028 139.671L213.024 139.77C206.24 141.081 199.876 141.497 194.532 141.497C192.335 141.497 190.313 141.427 188.501 141.319C179.713 140.8 174.028 139.352 173.791 139.291L174.729 135.652H174.73C174.781 135.665 176.201 136.023 178.66 136.439C181.118 136.855 184.614 137.329 188.822 137.574C194.978 137.933 203.7 137.846 213.203 135.904Z" fill="#1DB776" fill-opacity="0.56"/>
<path d="M174.169 143.798L173.683 145.612L174.17 143.798H174.169ZM212.975 147.033C212.958 146.11 212.949 145.223 212.947 144.375C203.305 146.28 194.461 146.285 188.243 145.86C179.833 145.286 174.272 143.824 174.17 143.798L173.683 145.612L173.196 147.427C173.432 147.49 179.101 148.995 187.883 149.602C189.973 149.748 192.345 149.845 194.942 149.845C200.222 149.845 206.418 149.44 212.997 148.192C212.989 147.801 212.981 147.414 212.975 147.033Z" fill="#1DB776" fill-opacity="0.56"/>
<path d="M213.332 156.552C206.816 157.793 200.655 158.205 195.351 158.205C192.35 158.205 189.625 158.073 187.265 157.886C178.49 157.189 172.836 155.628 172.599 155.563L173.105 153.753L173.609 151.943H173.61C173.7 151.969 179.248 153.488 187.662 154.148C194.039 154.647 203.185 154.722 213.141 152.763C213.152 153.066 213.165 153.371 213.178 153.678C213.197 154.12 213.218 154.568 213.236 155.015C213.257 155.499 213.29 156.012 213.332 156.552Z" fill="#1DB776" fill-opacity="0.56"/>
<path d="M214.351 164.789C207.642 166.127 201.267 166.574 195.755 166.574C192.348 166.574 189.272 166.403 186.647 166.169C177.877 165.384 172.239 163.767 172.002 163.699L173.05 160.09V160.089C173.104 160.105 178.647 161.688 187.081 162.434C193.715 163.021 203.359 163.178 213.817 161.062C213.876 161.518 213.939 161.986 214.006 162.463C214.014 162.516 214.021 162.568 214.029 162.621C214.063 162.863 214.1 163.105 214.134 163.352C214.202 163.823 214.276 164.303 214.351 164.789Z" fill="#1DB776" fill-opacity="0.56"/>
<path d="M215.751 172.944C208.711 174.451 201.983 174.952 196.155 174.952C192.341 174.952 188.911 174.737 186.028 174.451C177.264 173.578 171.641 171.906 171.405 171.834L172.489 168.236C172.544 168.251 178.072 169.891 186.5 170.721C193.515 171.412 203.903 171.656 215.087 169.243C215.296 170.452 215.518 171.688 215.751 172.944Z" fill="#1DB776" fill-opacity="0.56"/>
<path d="M217.334 181.051C209.897 182.771 202.75 183.341 196.551 183.341C192.327 183.341 188.545 183.077 185.41 182.732C176.653 181.772 171.044 180.042 170.81 179.97L171.37 178.175L171.929 176.382L171.93 176.383C172.017 176.409 177.524 178.095 185.919 179.008C193.358 179.816 204.603 180.158 216.596 177.363C216.835 178.588 217.083 179.819 217.334 181.051Z" fill="#1DB776" fill-opacity="0.56"/>
<path d="M188.697 193.728C189.057 178.233 186.404 160.204 186.426 144.705C186.447 130.808 187.462 117.011 187.451 103.114C184.136 103.364 182.712 103.93 182.712 103.93C182.712 103.93 179.542 106.635 169.226 109.996C159.499 113.166 161.307 149.093 161.898 169.202C162.489 189.312 162.254 202.061 181.377 204.505C183.173 204.734 184.937 204.937 186.665 205.107C186.694 200.508 188.59 198.338 188.697 193.728Z" fill="#FB4C47"/>
<path d="M167.952 152.872C167.747 152.872 167.562 152.728 167.517 152.518C167.465 152.278 167.619 152.041 167.86 151.989C168.104 151.936 173.843 150.63 175.822 143.757C175.89 143.52 176.137 143.384 176.374 143.452C176.611 143.52 176.748 143.767 176.679 144.004C174.548 151.407 168.31 152.806 168.045 152.862C168.014 152.868 167.983 152.872 167.952 152.872Z" fill="#B63A37"/>
<path d="M184.646 190.676C184.461 190.676 184.305 190.531 184.295 190.343C182.755 162.597 181.531 135.475 183.429 108.705C183.444 108.511 183.613 108.366 183.805 108.379C184 108.393 184.145 108.561 184.132 108.755C182.235 135.484 183.459 162.582 184.998 190.304C185.008 190.498 184.86 190.664 184.666 190.675C184.659 190.676 184.653 190.676 184.646 190.676Z" fill="#B63A37"/>
<path d="M221.889 124.069C222.35 109.754 215.456 105.976 201.696 103.913C201.643 103.904 201.59 103.896 201.536 103.889C201.315 106.254 201.396 108.655 201.551 111.016C201.798 114.792 202.236 118.546 202.388 122.328C203.023 138.11 204.568 148.829 203.3 169.543C202.346 185.111 204.835 193.283 205.271 205.08C213.082 203.886 219.229 200.708 223.014 194.257C230.116 182.154 221.429 138.384 221.889 124.069Z" fill="#FB4C47"/>
<path d="M220.273 152.389C220.24 152.389 220.207 152.386 220.173 152.378C220.081 152.357 210.933 150.112 209.387 136.807C209.358 136.563 209.534 136.341 209.779 136.313C210.025 136.283 210.245 136.46 210.272 136.705C211.747 149.39 220.286 151.489 220.373 151.508C220.613 151.563 220.763 151.803 220.708 152.043C220.661 152.249 220.477 152.389 220.273 152.389Z" fill="#B63A37"/>
<path d="M206.32 188.13C206.151 188.13 206.002 188.008 205.973 187.835C205.328 183.918 205.576 173.409 205.816 163.246C205.998 155.515 206.17 148.213 205.969 143.814C205.289 128.921 203.254 108.121 203.234 107.913C203.215 107.719 203.356 107.547 203.549 107.528C203.741 107.51 203.915 107.65 203.934 107.843C203.954 108.052 205.991 128.87 206.672 143.781C206.874 148.205 206.702 155.519 206.519 163.263C206.28 173.393 206.033 183.869 206.668 187.721C206.699 187.912 206.57 188.094 206.378 188.125C206.359 188.128 206.339 188.13 206.32 188.13Z" fill="#B63A37"/>
<path d="M193.811 71.0819L187.045 73.5392C187.045 73.5392 185.016 76.3378 182.355 75.7607C181.288 75.5286 180.119 74.754 178.938 73.0399C174.814 67.0476 184.762 58.7455 190.741 60.1405C193.674 60.8244 194.469 63.4712 194.517 65.9902C194.567 68.6055 193.811 71.0819 193.811 71.0819Z" fill="#002014"/>
<path d="M193.811 71.0819L187.045 73.5392C187.045 73.5392 185.015 76.3378 182.354 75.7607C182.354 72.6572 186.708 66.9828 194.516 65.9902C194.566 68.6055 193.811 71.0819 193.811 71.0819Z" fill="#FFD339"/>
<path d="M193.698 59.1111C193.576 59.1111 193.443 59.1253 193.3 59.1537C192.949 59.2241 192.722 59.3944 192.585 59.6901C191.977 61.0061 193.259 64.1405 194.175 65.9922C194.741 63.938 195.42 60.5042 194.461 59.4222C194.277 59.2142 194.025 59.1111 193.698 59.1111ZM194.282 67.5378C194.13 67.5378 193.987 67.4557 193.912 67.32C193.588 66.7391 190.778 61.5807 191.815 59.3346C192.064 58.7945 192.521 58.4439 193.134 58.3216C194.178 58.1136 194.778 58.4994 195.096 58.8593C196.762 60.7394 194.903 66.586 194.686 67.2465C194.633 67.4064 194.491 67.5199 194.323 67.536C194.309 67.5372 194.296 67.5378 194.282 67.5378Z" fill="#FFD339"/>
<path d="M199.419 61.1984C199.379 61.1984 199.338 61.2008 199.298 61.207C197.864 61.3977 196.131 64.4389 195.215 66.3629C197.119 65.5611 200.14 64.0297 200.541 62.6372C200.631 62.3236 200.57 62.0465 200.351 61.7638C200.056 61.3841 199.751 61.1984 199.419 61.1984ZM194.401 67.5647C194.287 67.5647 194.175 67.519 194.094 67.4338C193.977 67.3116 193.944 67.1326 194.009 66.9771C194.277 66.3357 196.695 60.6978 199.185 60.3657C199.662 60.3021 200.368 60.4021 201.021 61.2428C201.405 61.7366 201.521 62.3001 201.356 62.8717C200.671 65.2488 195.171 67.3116 194.546 67.5394C194.498 67.5567 194.45 67.5647 194.401 67.5647Z" fill="#FFD339"/>
<path d="M181.843 76.6418C180.365 76.4209 178.704 75.6332 177.661 73.4574C175.197 68.3213 181.089 63.9869 181.149 63.9437C181.269 63.8567 181.437 63.8845 181.524 64.0042C181.611 64.1246 181.584 64.2931 181.463 64.3801C181.407 64.4209 175.877 68.4953 178.145 73.2247C180.169 77.4443 184.625 75.9598 184.813 75.8937C184.955 75.8456 185.107 75.9203 185.156 76.0604C185.204 76.2005 185.13 76.3536 184.989 76.4023C184.963 76.4116 183.521 76.8924 181.843 76.6418Z" fill="#002014"/>
<path d="M201.446 77.2761C201.446 77.2761 204.086 88.3638 200.418 95.5406C196.751 102.717 193.066 104.672 198.333 106.902C203.599 109.131 209.591 104.885 213.612 107.093C218.466 109.759 213.023 87.3836 210.597 77.9143C208.114 68.2253 196.322 67.1408 196.322 67.1408L201.446 77.2761Z" fill="#002014"/>
<path d="M208.425 85.2432C208.425 85.2432 213.144 74.4369 204.297 69.3502C195.45 64.2634 186.514 68.1052 184.133 73.9616C181.753 79.8181 185.398 83.6704 185.398 83.6704L208.425 85.2432Z" fill="#002014"/>
<path d="M193.263 108.06C195.817 108.769 196.838 107.637 197.622 106.795L198.15 102.217L198.459 99.5469L198.523 99.1537L197.349 99.0234L188.686 96.5248L187.515 102.025L186.958 104.633C188.071 105.684 189.551 107.029 193.263 108.06Z" fill="#FBB990"/>
<path d="M198.149 102.217C195.465 103.427 190.171 102.878 187.514 102.025C187.505 102.024 187.498 102.021 187.489 102.018L188.686 96.5248L197.348 99.0234L198.522 99.1536L198.458 99.5468L198.149 102.217Z" fill="#181818"/>
<path d="M205.222 85.3099C205.222 85.3099 210.366 83.8149 209.357 88.3591C208.245 93.3626 204.15 91.9423 203.445 91.6182L205.222 85.3099Z" fill="#FB9476"/>
<path d="M201.527 93.6205C201.242 95.5241 202.559 97.3042 204.463 97.5888C206.367 97.8733 208.147 96.5561 208.432 94.6519C208.674 93.0279 207.749 91.4971 206.292 90.9046C206.289 90.9076 206.287 90.9113 206.284 90.9169C206.039 90.9811 205.988 91.17 205.965 91.3755C207.258 91.8354 208.089 93.1625 207.879 94.5698C207.641 96.1679 206.146 97.2752 204.546 97.0363C202.948 96.7975 201.84 95.3012 202.079 93.7032C202.187 92.981 202.551 92.36 203.065 91.9187C203.198 91.8051 203.341 91.7027 203.493 91.6138C203.358 91.4922 203.23 91.3508 203.117 91.1891C202.978 91.2755 202.843 91.3737 202.718 91.4811C202.097 92.0076 201.656 92.7532 201.527 93.6205Z" fill="white"/>
<path d="M205.798 90.1326C205.788 90.1314 205.778 90.1289 205.768 90.1265C205.619 90.0876 205.529 89.9351 205.568 89.7858C206.14 87.5803 207.764 86.8162 207.833 86.7847C207.973 86.7211 208.139 86.7822 208.203 86.9229C208.267 87.0631 208.205 87.2285 208.066 87.2927C208.005 87.3211 206.611 87.9895 206.109 89.9265C206.072 90.066 205.937 90.1536 205.798 90.1326Z" fill="#FA7764"/>
<path d="M207.638 89.2045C207.559 89.1928 207.486 89.1477 207.441 89.0742C207.433 89.0619 207.089 88.5162 206.597 88.5101C206.444 88.5095 206.32 88.3823 206.321 88.228C206.323 88.0737 206.449 87.9502 206.604 87.9521C207.405 87.9601 207.897 88.7496 207.918 88.7829C207.998 88.915 207.956 89.0866 207.825 89.1668C207.767 89.202 207.7 89.2137 207.638 89.2045Z" fill="#FA7764"/>
<path d="M208.043 84.6867C207.723 86.494 207.23 88.2501 206.618 89.8969C206.342 90.6432 206.038 91.366 205.716 92.061C203.45 96.9595 200.192 100.489 197.59 100.795C193.469 101.279 188.792 99.2662 186.499 93.893C186.125 93.0153 185.732 91.9548 185.545 90.7055C185.519 90.5321 185.495 90.3543 185.474 90.1728C184.801 84.5904 186.217 76.6322 186.217 76.6322C189.594 71.5905 196.854 72.9342 201.066 73.6274C205.281 74.3218 209.51 76.4161 208.043 84.6867Z" fill="#FFC29C"/>
<path d="M196.45 97.9095C195.556 97.7762 195.027 97.3707 195.004 97.3534C194.883 97.2583 194.861 97.083 194.956 96.9614C195.05 96.8398 195.225 96.8176 195.346 96.912C195.356 96.9188 195.829 97.2719 196.619 97.3688C197.423 97.4669 197.963 97.2812 197.968 97.2793C198.113 97.2281 198.273 97.304 198.325 97.4484C198.376 97.5929 198.302 97.7527 198.157 97.8046C198.131 97.8145 197.496 98.0385 196.551 97.9231C196.517 97.9194 196.483 97.9145 196.45 97.9095Z" fill="#FB9476"/>
<path d="M180.768 151.488C180.589 151.488 180.422 151.374 180.364 151.194C179.757 149.326 179.339 147.218 179.321 147.129C179.276 146.899 179.425 146.676 179.655 146.631C179.884 146.585 180.108 146.735 180.154 146.965C180.158 146.987 180.581 149.113 181.171 150.933C181.244 151.156 181.121 151.395 180.899 151.467C180.855 151.481 180.811 151.488 180.768 151.488Z" fill="#108A57"/>
<path d="M183.034 150.728C182.857 150.728 182.692 150.617 182.632 150.44C182 148.58 181.554 146.479 181.536 146.39C181.487 146.161 181.634 145.935 181.863 145.887C182.092 145.839 182.317 145.985 182.366 146.214C182.37 146.236 182.821 148.356 183.435 150.167C183.511 150.389 183.392 150.63 183.17 150.705C183.124 150.72 183.079 150.728 183.034 150.728Z" fill="#108A57"/>
<path d="M185.301 149.967C185.126 149.967 184.963 149.859 184.901 149.685C184.246 147.833 183.772 145.739 183.752 145.651C183.701 145.422 183.844 145.195 184.073 145.144C184.301 145.093 184.528 145.236 184.58 145.465C184.585 145.486 185.063 147.599 185.701 149.401C185.78 149.622 185.663 149.864 185.443 149.943C185.396 149.959 185.348 149.967 185.301 149.967Z" fill="#108A57"/>
<path d="M187.566 149.208C187.393 149.208 187.232 149.101 187.168 148.93C186.488 147.088 185.987 145 185.966 144.912C185.911 144.684 186.051 144.455 186.28 144.401C186.508 144.347 186.736 144.487 186.791 144.715C186.796 144.736 187.302 146.842 187.964 148.636C188.045 148.856 187.933 149.1 187.713 149.181C187.665 149.199 187.615 149.208 187.566 149.208Z" fill="#108A57"/>
<path d="M189.833 148.447C189.663 148.447 189.502 148.344 189.437 148.175C188.733 146.342 188.203 144.261 188.181 144.173C188.123 143.946 188.261 143.715 188.488 143.658C188.715 143.601 188.946 143.738 189.004 143.965C189.009 143.986 189.543 146.086 190.229 147.871C190.313 148.089 190.204 148.335 189.985 148.419C189.935 148.438 189.884 148.447 189.833 148.447Z" fill="#108A57"/>
<path d="M192.098 147.687C191.93 147.687 191.771 147.586 191.705 147.42C190.976 145.596 190.419 143.521 190.395 143.434C190.335 143.208 190.469 142.975 190.696 142.914C190.922 142.854 191.155 142.988 191.215 143.215C191.221 143.236 191.783 145.329 192.492 147.105C192.579 147.323 192.473 147.57 192.256 147.657C192.204 147.677 192.151 147.687 192.098 147.687Z" fill="#108A57"/>
<path d="M194.364 146.927C194.198 146.927 194.04 146.828 193.973 146.665C193.219 144.849 192.635 142.782 192.61 142.695C192.547 142.469 192.678 142.235 192.904 142.171C193.129 142.108 193.364 142.239 193.427 142.465C193.433 142.486 194.023 144.572 194.756 146.34C194.846 146.556 194.743 146.804 194.527 146.894C194.474 146.916 194.419 146.927 194.364 146.927Z" fill="#108A57"/>
<path d="M206.574 101.692C206.488 102.799 206.282 103.904 205.905 104.936C205.81 105.2 205.701 105.459 205.581 105.712V105.713C204.973 107 204.053 108.133 202.701 108.962C202.701 108.962 196.109 111.764 188.344 108.325H188.343C187.902 108.129 187.457 107.913 187.009 107.675C186.617 107.468 186.224 107.243 185.83 107.002C182.458 104.936 181.121 102.152 180.755 99.5C180.723 99.2636 180.697 99.0297 180.679 98.7945C180.536 96.9249 180.838 95.1632 181.199 93.8207C181.224 93.7318 181.248 93.6442 181.272 93.5596C181.663 92.1918 182.09 91.3214 182.09 91.3214C182.09 91.3214 183.836 90.5628 186.126 90.2147C186.997 90.0826 187.947 90.0098 188.91 90.061C190.003 90.1178 191.113 90.3351 192.144 90.8054C199.507 94.1645 203.236 95.6644 205.372 92.7812C205.372 92.7812 205.743 93.854 206.081 95.47C206.129 95.6996 206.176 95.9385 206.222 96.1879C206.347 96.873 206.458 97.6291 206.532 98.426C206.629 99.4698 206.662 100.58 206.574 101.692Z" fill="#0CAD69"/>
<path d="M206.222 96.188C206.124 96.3398 206.014 96.4935 205.893 96.6466C204.96 97.8249 203.148 99.1816 199.746 99.1816C199.537 99.1816 199.324 99.1767 199.103 99.1656C195.805 99.0082 193.233 97.6465 190.746 96.3299C187.777 94.759 184.971 93.2739 181.249 94.0578L181.199 93.8208L181.15 93.5838C181.191 93.5758 181.233 93.5671 181.273 93.5597C185.104 92.7962 187.956 94.3053 190.972 95.9022C193.413 97.1929 195.937 98.5292 199.126 98.6804C202.017 98.8199 204.16 98.0397 205.498 96.3639C205.738 96.0633 205.93 95.759 206.081 95.4701C206.13 95.6991 206.176 95.9386 206.222 96.188Z" fill="#108E59"/>
<path d="M205.904 104.936C205.808 105.2 205.7 105.459 205.579 105.712V105.713C204.346 106.421 202.868 106.906 201.159 107.163C200.188 107.31 199.142 107.382 198.025 107.382C196.571 107.382 194.999 107.259 193.321 107.012C188.288 106.268 183.984 104.643 183.94 104.626L184.114 104.173C184.156 104.189 188.417 105.798 193.4 106.533C197.364 107.116 202.501 107.239 205.904 104.936Z" fill="#108E59"/>
<path d="M194.266 143.775L179.341 148.649C179.341 148.649 179.143 147.779 178.838 146.301C178.77 145.971 178.696 145.61 178.619 145.222C178.408 144.172 178.165 142.919 177.909 141.522C177.845 141.167 177.78 140.805 177.714 140.433C177.507 139.264 177.295 138.013 177.089 136.706C177.032 136.344 176.974 135.978 176.919 135.607C176.734 134.384 176.554 133.124 176.39 131.844C176.343 131.473 176.296 131.101 176.251 130.727C176.098 129.461 175.962 128.185 175.85 126.919C175.815 126.54 175.783 126.161 175.754 125.784C175.651 124.465 175.576 123.165 175.538 121.907C175.527 121.52 175.518 121.138 175.514 120.759C175.497 119.351 175.532 118.008 175.632 116.767C175.665 116.361 175.705 115.967 175.753 115.585C175.786 115.309 175.824 115.039 175.865 114.776C176.06 113.547 176.331 112.433 176.657 111.422C176.793 110.997 176.94 110.592 177.095 110.204C179.858 103.264 185.284 101.897 185.284 101.897C189.303 102.295 191.069 106.59 191.069 106.59C190.227 107.393 189.618 108.496 189.201 109.819C189.093 110.162 188.997 110.52 188.915 110.891C188.692 111.885 188.556 112.976 188.493 114.137C188.473 114.498 188.46 114.865 188.454 115.237C188.436 116.322 188.474 117.457 188.557 118.623C188.582 118.987 188.613 119.353 188.647 119.722C188.751 120.844 188.893 121.99 189.064 123.14C189.119 123.507 189.176 123.871 189.235 124.237C189.421 125.382 189.634 126.527 189.864 127.658C189.937 128.021 190.013 128.382 190.09 128.743C190.338 129.905 190.602 131.046 190.872 132.147C190.96 132.506 191.048 132.859 191.138 133.209C191.437 134.391 191.742 135.518 192.035 136.566C192.136 136.926 192.237 137.278 192.335 137.618C192.697 138.874 193.037 139.988 193.327 140.912C193.446 141.293 193.557 141.64 193.658 141.953C194.032 143.11 194.266 143.775 194.266 143.775Z" fill="#0CAD69"/>
<path d="M189.2 109.819C189.092 110.162 188.996 110.52 188.914 110.891C186.272 110.565 181.473 110.262 176.656 111.422C176.792 110.997 176.938 110.591 177.093 110.204C179.488 109.686 181.788 109.514 183.686 109.494C185.926 109.47 187.854 109.644 189.2 109.819Z" fill="#108E59"/>
<path d="M188.492 114.138C188.471 114.497 188.459 114.865 188.453 115.237C185.3 115.102 180.348 115.229 175.631 116.767C175.664 116.361 175.704 115.967 175.752 115.585C178.878 114.624 181.995 114.259 184.443 114.144C185.968 114.072 187.346 114.088 188.492 114.138Z" fill="#108E59"/>
<path d="M188.645 119.721C185.28 119.778 180.227 120.199 175.537 121.908C175.526 121.521 175.517 121.137 175.512 120.759C178.965 119.549 182.494 119.018 185.199 118.793C186.429 118.69 187.564 118.641 188.555 118.623C188.581 118.987 188.611 119.353 188.645 119.721Z" fill="#108E59"/>
<path d="M189.235 124.238C185.759 124.472 180.585 125.126 175.849 126.919C175.815 126.539 175.783 126.162 175.754 125.784C180.517 124.02 185.594 123.373 189.064 123.14C189.119 123.506 189.176 123.872 189.235 124.238Z" fill="#108E59"/>
<path d="M190.088 128.742C186.557 129.142 181.225 130.007 176.389 131.845C176.342 131.474 176.295 131.102 176.25 130.727C181.109 128.91 186.339 128.055 189.863 127.657C189.935 128.021 190.012 128.383 190.088 128.742Z" fill="#108E59"/>
<path d="M191.138 133.209C187.597 133.767 182.074 134.849 177.088 136.706C177.031 136.344 176.974 135.978 176.918 135.607C181.888 133.782 187.328 132.71 190.872 132.146C190.959 132.506 191.048 132.859 191.138 133.209Z" fill="#108E59"/>
<path d="M192.336 137.618C188.834 138.331 183.09 139.65 177.911 141.521C177.846 141.168 177.781 140.805 177.715 140.433C182.872 138.586 188.532 137.282 192.037 136.565C192.138 136.925 192.238 137.277 192.336 137.618Z" fill="#108E59"/>
<path d="M193.657 141.953C190.265 142.807 184.262 144.407 178.838 146.301C178.769 145.971 178.696 145.61 178.618 145.222C184.01 143.348 189.932 141.768 193.326 140.912C193.446 141.293 193.556 141.64 193.657 141.953Z" fill="#108E59"/>
<path d="M188.344 108.325H188.343C188.233 108.319 188.119 108.306 188.001 108.283C187.642 108.216 187.313 108.003 187.008 107.675C184.442 104.907 183.781 93.9842 183.781 93.9842C183.781 93.9842 184.743 91.6072 186.126 90.2153C186.996 90.0832 187.947 90.0103 188.91 90.0616C189.109 92.1127 189.799 98.6519 190.602 100.451C191.524 102.518 191.406 108.488 188.344 108.325Z" fill="#128E5A"/>
<path d="M206.575 101.692C202.825 104.602 194.641 102.926 187.169 100.725C184.616 99.9723 182.489 99.6211 180.755 99.5007C180.724 99.2643 180.698 99.0298 180.68 98.7952C183.928 98.9983 188.279 99.9112 193.67 101.136C201.664 102.951 205.306 99.8871 206.533 98.4267C206.63 99.4705 206.662 100.582 206.575 101.692Z" fill="#108E59"/>
<path d="M201.156 86.8902C201.033 87.679 201.288 88.3747 201.728 88.4438C202.169 88.5136 202.627 87.929 202.751 87.1396C202.799 86.8285 202.789 86.5334 202.732 86.284C203.516 86.4408 203.852 85.9902 203.852 85.9902C203.332 85.9822 202.668 85.7662 202.356 85.6538C202.245 85.6125 202.177 85.5859 202.177 85.5859C201.738 85.5162 201.28 86.0995 201.156 86.8902Z" fill="#181818"/>
<path d="M202.178 85.5858C202.178 85.5858 202.245 85.6124 202.356 85.6538C202.301 85.6192 202.242 85.5957 202.178 85.5858Z" fill="#181818"/>
<path d="M206.619 89.8969C206.342 90.6432 206.039 91.366 205.718 92.061C205.363 92.0641 204.983 92.0394 204.591 91.9839C202.84 91.7363 201.501 90.9697 201.601 90.2722C201.7 89.5753 203.2 89.2118 204.949 89.4587C205.573 89.547 206.145 89.7013 206.619 89.8969Z" fill="#FD9B7E"/>
<path d="M193.766 88.9036C193.666 89.6085 192.151 89.9758 190.382 89.7252C188.613 89.474 187.26 88.7 187.361 87.995C187.46 87.2908 188.975 86.9229 190.744 87.1735C192.513 87.4247 193.866 88.1987 193.766 88.9036Z" fill="#FD9B7E"/>
<path d="M186.463 84.4471C186.559 83.7799 186.275 83.1182 185.731 82.7219C184.381 81.7398 182.573 81.1837 181.677 82.9688C180.014 86.2822 183.036 90.7227 185.649 90.1376L186.463 84.4471Z" fill="#FBB990"/>
<path d="M187.011 89.9203C186.961 89.9672 186.911 90.0123 186.859 90.0536C186.709 90.1777 186.556 90.2832 186.4 90.3709C186.114 90.5332 185.824 90.6388 185.546 90.7061C185.519 90.5314 185.495 90.3542 185.475 90.1727C185.674 90.1252 185.879 90.0561 186.08 89.9542C186.244 89.8771 186.408 89.7789 186.563 89.6573C186.625 89.6086 186.688 89.5555 186.746 89.5006C186.844 89.4055 186.983 89.4265 187.056 89.545C187.129 89.661 187.111 89.8314 187.011 89.9203Z" fill="#FB9476"/>
<path d="M184.482 87.8343C184.345 87.814 184.241 87.6936 184.244 87.5516C184.299 85.3147 182.879 84.1203 182.865 84.1086C182.747 84.0105 182.729 83.8352 182.826 83.716C182.924 83.5963 183.099 83.5784 183.219 83.6759C183.286 83.7308 184.864 85.0444 184.803 87.5646C184.799 87.7189 184.671 87.8411 184.517 87.8368C184.505 87.8368 184.494 87.8356 184.482 87.8343Z" fill="#FB9476"/>
<path d="M182.698 86.2671C182.634 86.2572 182.574 86.2258 182.529 86.1733C182.428 86.0566 182.44 85.8813 182.557 85.7801C182.59 85.7517 183.374 85.0832 184.255 85.3165C184.404 85.3561 184.493 85.5091 184.453 85.6585C184.413 85.8073 184.259 85.8949 184.111 85.8566C183.519 85.6999 182.928 86.198 182.922 86.2029C182.858 86.2579 182.776 86.2788 182.698 86.2671Z" fill="#FB9476"/>
<path d="M199.115 89.8774H199.117H199.115ZM197.713 91.2872C197.6 91.2705 197.5 91.1853 197.477 91.0539C197.456 90.9304 197.528 90.8094 197.642 90.7551C198.329 90.4292 198.991 90.0101 199.106 89.8329C199.011 89.3237 198.634 87.3004 198.497 86.5596C198.468 86.4078 198.568 86.2634 198.72 86.235C198.871 86.2066 199.017 86.306 199.045 86.4572C199.188 87.2226 199.585 89.3527 199.664 89.7743C199.692 89.92 199.774 90.3625 197.874 91.2631C197.822 91.2878 197.766 91.2952 197.713 91.2872" fill="#FB9476"/>
<path d="M194.167 85.8462C194.054 86.6369 193.607 87.227 193.166 87.1652C192.724 87.1029 192.457 86.4097 192.569 85.6184C192.614 85.3073 192.71 85.0277 192.837 84.8061C192.041 84.7271 191.851 84.1975 191.851 84.1975C192.351 84.3419 193.049 84.3296 193.381 84.3135C193.499 84.3061 193.572 84.3 193.572 84.3C194.012 84.3623 194.28 85.0536 194.167 85.8462Z" fill="#181818"/>
<path d="M193.573 84.3002C193.573 84.3002 193.501 84.3064 193.383 84.3132C193.445 84.2965 193.509 84.2903 193.573 84.3002Z" fill="#181818"/>
<path d="M205.19 85.6279C205.03 85.2977 204.82 84.9687 204.594 84.6724C204.366 84.3743 204.109 84.1033 203.834 83.865C203.561 83.6231 203.261 83.4249 202.951 83.2663C202.645 83.0972 202.31 83.0046 201.987 82.9212L201.954 82.9132C201.603 82.8231 201.392 82.4651 201.482 82.1145C201.571 81.7633 201.929 81.5516 202.28 81.6417C202.321 81.6522 202.362 81.6676 202.398 81.6849C202.806 81.8787 203.202 82.0917 203.54 82.3756C203.882 82.6496 204.187 82.9589 204.443 83.2978C204.701 83.6335 204.921 83.9897 205.103 84.3607C205.283 84.7341 205.43 85.1088 205.533 85.5168C205.558 85.6137 205.5 85.7118 205.403 85.7365C205.319 85.7581 205.233 85.7162 205.196 85.6402L205.19 85.6279Z" fill="#111111"/>
<path d="M190.147 83.2332C190.428 82.8486 190.74 82.5147 191.087 82.1987C191.434 81.8851 191.815 81.603 192.227 81.3592C192.637 81.1111 193.086 80.9154 193.558 80.7722C194.029 80.6154 194.53 80.558 195.036 80.5253C195.397 80.5018 195.709 80.7759 195.732 81.137C195.755 81.4981 195.482 81.8098 195.12 81.8333C195.085 81.8357 195.049 81.8345 195.014 81.8314L194.972 81.8271C194.586 81.787 194.185 81.7543 193.785 81.8154C193.385 81.8623 192.98 81.9567 192.59 82.1086C192.198 82.2555 191.814 82.4443 191.448 82.6727C191.087 82.9005 190.731 83.169 190.427 83.461L190.417 83.4702C190.345 83.5393 190.231 83.5363 190.162 83.4647C190.1 83.4005 190.096 83.3023 190.147 83.2332Z" fill="#111111"/>
<path d="M189.83 76.0052C189.83 76.0052 195.008 83.0734 207.108 82.7277C213.617 82.5419 207.964 72.377 198.261 71.8054C188.557 71.2345 189.83 76.0052 189.83 76.0052Z" fill="#002014"/>
<path d="M207.139 81.6212C207.139 81.6212 207.866 87.0117 206.619 89.8967C206.619 89.8967 208.958 85.0717 208.229 82.0218C207.499 78.972 207.139 81.6212 207.139 81.6212Z" fill="#181818"/>
<path d="M193.074 76.0263C193.074 76.0263 187.307 85.8573 188.718 93.7933C190.128 101.729 192.188 108.046 186.5 108.639C180.87 109.226 177.137 107.015 172.096 109.008H172.095C172.042 109.03 171.991 109.05 171.937 109.072C171.805 109.127 171.686 109.159 171.577 109.174C170.704 109.286 170.537 108.147 170.864 106.203C170.981 105.515 171.158 104.729 171.387 103.86C172.449 99.8387 174.632 94.0853 177.005 88.556C178.868 84.2136 180.848 80.0089 182.493 76.8905C183.092 75.7548 183.647 74.7647 184.136 73.9616C189.342 65.4219 200.936 67.8299 200.936 67.8299L193.074 76.0263Z" fill="#002014"/>
<path d="M182.838 77.2641C182.785 77.361 179.848 82.762 177.004 88.5555C174.682 93.2824 172.422 98.2723 171.836 100.859C171.585 101.973 171.446 102.973 171.385 103.86C171.194 106.698 171.807 108.389 172.093 109.008C172.041 109.029 171.989 109.05 171.936 109.072C171.804 109.127 171.685 109.159 171.575 109.174C171.349 108.673 170.998 107.692 170.863 106.202C170.737 104.825 170.798 103.012 171.311 100.739C172.63 94.9107 181.969 77.7344 182.366 77.0061C182.395 76.9524 182.44 76.9141 182.492 76.8907C182.566 76.8567 182.654 76.8567 182.73 76.8993C182.861 76.9697 182.91 77.1332 182.838 77.2641Z" fill="#002014"/>
<g opacity="0.399994">
<g opacity="0.399994">
<g opacity="0.399994">
<g opacity="0.399994">
<g opacity="0.399994">
<g opacity="0.399994">
<path opacity="0.399994" d="M199.919 82.7423C199.919 82.7423 193.636 80.8344 191.847 87.7415C190.057 94.6479 196.25 97.749 200.178 96.9898C204.107 96.2299 206.691 83.9139 199.919 82.7423Z" fill="#FFC29C"/>
</g>
</g>
</g>
</g>
</g>
</g>
<path d="M193.653 82.0089C191.303 82.0089 189.392 83.9205 189.392 86.2704C189.392 88.6197 191.303 90.5313 193.653 90.5313C196.003 90.5313 197.914 88.6197 197.914 86.2704C197.914 83.9205 196.003 82.0089 193.653 82.0089ZM193.653 91.1177C190.979 91.1177 188.805 88.9431 188.805 86.2704C188.805 83.5971 190.979 81.4225 193.653 81.4225C196.326 81.4225 198.501 83.5971 198.501 86.2704C198.501 88.9431 196.326 91.1177 193.653 91.1177Z" fill="white"/>
<path d="M204.392 84.1866C202.042 84.1866 200.131 86.0982 200.131 88.4475C200.131 90.7974 202.042 92.709 204.392 92.709C206.742 92.709 208.653 90.7974 208.653 88.4475C208.653 86.0982 206.742 84.1866 204.392 84.1866ZM204.392 93.2954C201.719 93.2954 199.544 91.1208 199.544 88.4475C199.544 85.7748 201.719 83.6002 204.392 83.6002C207.066 83.6002 209.24 85.7748 209.24 88.4475C209.24 91.1208 207.066 93.2954 204.392 93.2954Z" fill="white"/>
<path d="M199.821 87.189C199.304 86.3927 198.352 86.7297 198.312 86.7445L198.11 86.194C198.604 86.0137 199.698 85.923 200.313 86.8692L199.821 87.189Z" fill="white"/>
<path d="M207.53 198.534C206.174 199.507 204.326 202.416 201.116 203.437C182.883 209.238 165.868 197.978 165.868 197.978C164.857 192.985 165.483 187.311 167.165 185.234C166.636 184.496 166.986 183.614 166.986 183.614L158.956 168.729C159.151 168.851 171.551 176.691 180.74 182.244H180.744C183.392 183.843 185.773 185.253 187.517 186.233C190.18 187.727 193.577 187.873 196.907 187.415C203.396 186.518 209.622 183.32 209.622 183.32C209.622 183.32 225.149 174.165 229.068 174.481C232.114 174.725 221.09 191.526 207.53 198.534Z" fill="#108E59"/>
<path d="M173.188 213.594C173.188 213.594 172.207 213.778 170.612 214.105C170.157 214.198 169.654 214.301 169.11 214.417C168.388 214.569 167.594 214.74 166.747 214.928C166.264 215.035 165.765 215.147 165.25 215.264C158.858 216.72 150.394 218.935 146.985 221.1C146.746 221.252 146.514 221.402 146.291 221.554C141.098 225.045 140.036 228.061 139.072 227.449C138.067 226.812 137.841 224.197 139.482 222.478C140.618 221.287 141.413 219.549 142.938 217.671C143.35 217.163 143.816 216.645 144.356 216.124C146.741 213.825 150.559 211.449 152.691 209.623C152.829 209.505 152.959 209.389 153.082 209.276C154.837 207.658 155.521 204.327 158.724 203.315C160.288 202.821 162.163 203.014 163.973 203.491C164.294 203.575 164.614 203.67 164.928 203.77C165.399 203.921 165.86 204.086 166.303 204.257C166.916 204.497 167.498 204.749 168.028 204.997C168.536 205.234 168.999 205.466 169.398 205.675C170.36 206.179 170.955 206.554 170.955 206.554L173.188 213.594Z" fill="white"/>
<path d="M163.971 203.491C162.078 205.968 157.72 210.703 152.689 209.623C152.827 209.506 152.957 209.39 153.08 209.277C154.835 207.658 155.52 204.327 158.722 203.315C160.286 202.821 162.162 203.015 163.971 203.491Z" fill="#80D7B2"/>
<path d="M146.291 221.553C141.098 225.045 140.035 228.06 139.072 227.449C138.066 226.812 137.842 224.197 139.482 222.478C140.618 221.287 141.413 219.55 142.938 217.671C144.223 218.583 145.589 219.876 146.291 221.553Z" fill="#80D7B2"/>
<path d="M170.61 214.105C170.156 214.198 169.653 214.302 169.109 214.417C168.163 212.69 167.688 210.584 167.717 208.182C167.732 206.967 167.872 205.864 168.027 204.997C168.535 205.234 168.997 205.466 169.396 205.675C169.283 206.405 169.193 207.274 169.182 208.211C169.16 210.104 169.472 212.271 170.61 214.105Z" fill="#80D7B2"/>
<path d="M166.302 204.257C165.859 204.086 165.398 203.921 164.927 203.77C164.622 204.657 164.184 206.151 163.986 207.909C163.666 210.757 164.101 213.258 165.249 215.264C165.763 215.147 166.263 215.035 166.746 214.928C164.317 211.207 165.653 206.164 166.302 204.257Z" fill="#80D7B2"/>
<path d="M249.833 186.571C242.988 194.931 227.598 203.482 211.138 208.443C205.423 210.166 200.517 211.459 196.329 212.428C193.032 213.193 190.179 213.755 187.73 214.165C178.277 215.751 174.802 215.09 174.802 215.09C174.802 215.09 168.968 213.215 171.469 203.739C171.469 203.739 182.528 201.197 191.097 196.961C192.844 196.098 194.488 195.164 195.913 194.166C196.247 193.932 196.579 193.694 196.908 193.453C204.871 187.619 211.681 179.695 229.628 172.533C229.628 172.533 239.014 166.832 246.559 169.388C247.685 169.769 248.75 170.318 249.713 171.076C255.181 175.378 254.454 180.932 249.833 186.571Z" fill="#0CAD69"/>
<path d="M216.31 205.882L212.742 206.373L191.1 196.961C192.847 196.098 194.49 195.164 195.916 194.166C196.249 193.932 196.582 193.694 196.911 193.453L216.31 205.882Z" fill="#108E59"/>
<path d="M196.331 212.428C193.034 213.192 190.181 213.754 187.733 214.165C180.845 212.294 172.599 208.804 172.599 208.804L173.136 204.527L196.331 212.428Z" fill="#108E59"/>
<path d="M249.832 186.572C244.183 178.979 245.305 172.621 246.559 169.388C247.685 169.769 248.75 170.318 249.713 171.076C255.18 175.378 254.454 180.931 249.832 186.572Z" fill="#108E59"/>
<path d="M172.41 206.564C178.166 205.437 190.003 200.606 204.075 193.64C214.599 188.431 226.767 181.718 228.613 179.289C229.611 177.977 229.895 176.881 229.457 176.031C228.802 174.761 226.77 174.546 225.841 174.515C225.602 174.507 225.406 174.702 225.413 174.942C225.42 175.159 225.592 175.335 225.81 175.342C226.723 175.375 228.305 175.599 228.723 176.41C229.07 177.085 228.497 178.076 227.955 178.788C226.465 180.747 216.268 186.682 203.708 192.899C192.892 198.253 178.949 204.442 172.251 205.753L172.41 206.564Z" fill="#108E59"/>
<path d="M173.654 202.558C174.082 207.613 175.19 212.239 177.881 215.865C177.881 215.865 175.375 217.513 173.207 216.162C171.551 215.13 168.613 207.137 170.039 202.998C171.492 202.283 172.727 202.065 173.654 202.558Z" fill="#108E59"/>
<path d="M213.288 215.635C213.288 215.635 214.256 215.882 215.826 216.313C216.273 216.436 216.769 216.573 217.304 216.723C218.015 216.922 218.795 217.144 219.628 217.387C220.103 217.526 220.595 217.67 221.1 217.82C227.383 219.692 235.685 222.456 238.944 224.838C239.173 225.006 239.394 225.172 239.607 225.337C244.561 229.161 245.424 232.239 246.425 231.692C247.471 231.123 247.866 228.528 246.342 226.705C245.285 225.442 244.606 223.656 243.207 221.682C242.829 221.148 242.399 220.6 241.894 220.045C239.664 217.595 236.009 214.975 234.001 213.013C233.872 212.887 233.749 212.763 233.634 212.641C231.989 210.912 231.523 207.544 228.394 206.324C226.865 205.729 224.982 205.798 223.145 206.156C222.818 206.22 222.493 206.292 222.173 206.372C221.693 206.492 221.223 206.626 220.769 206.768C220.142 206.968 219.545 207.182 219 207.394C218.477 207.597 218 207.798 217.589 207.981C216.596 208.421 215.977 208.755 215.977 208.755L213.288 215.635Z" fill="white"/>
<path d="M223.145 206.156C224.872 208.752 228.912 213.761 234.002 213.013C233.872 212.887 233.75 212.763 233.634 212.642C231.989 210.912 231.523 207.544 228.394 206.324C226.866 205.729 224.982 205.798 223.145 206.156Z" fill="#80D7B2"/>
<path d="M239.607 225.337C244.56 229.161 245.424 232.239 246.424 231.692C247.47 231.122 247.865 228.528 246.341 226.705C245.285 225.442 244.606 223.656 243.206 221.682C241.864 222.507 240.416 223.709 239.607 225.337Z" fill="#80D7B2"/>
<path d="M215.826 216.313C216.273 216.436 216.769 216.573 217.305 216.723C218.361 215.062 218.972 212.991 219.101 210.591C219.165 209.379 219.098 208.269 219 207.394C218.477 207.597 218 207.798 217.589 207.981C217.655 208.717 217.688 209.59 217.637 210.525C217.535 212.415 217.082 214.558 215.826 216.313Z" fill="#80D7B2"/>
<path d="M219.629 217.388C220.103 217.526 220.595 217.67 221.1 217.82C222.377 215.894 222.975 213.427 222.841 210.563C222.759 208.797 222.42 207.278 222.173 206.372C221.693 206.492 221.224 206.626 220.769 206.768C221.293 208.713 222.296 213.832 219.629 217.388Z" fill="#80D7B2"/>
<path d="M215.119 206.045C216.995 215.665 211.052 217.155 211.052 217.155C211.052 217.155 202.196 218.244 175.228 208.145C159.68 202.323 145.343 193.224 138.72 184.693C133.857 178.429 133.153 172.468 139.18 168.334C140.569 167.382 142.126 166.836 143.746 166.582C151.208 165.411 160.023 170.433 160.023 170.433C178.183 179.098 173.637 182.076 188.782 191.723C197.443 197.24 215.119 206.045 215.119 206.045Z" fill="#0CAD69"/>
<path d="M143.746 166.582C144.035 169.835 144.53 180.712 138.72 184.693C133.857 178.429 133.152 172.468 139.181 168.334C140.569 167.382 142.125 166.836 143.746 166.582Z" fill="#108E59"/>
<path d="M213.998 208.804C208.328 207.303 196.832 201.707 183.246 193.836C173.086 187.949 161.383 180.455 159.699 177.91C158.789 176.536 158.578 175.424 159.07 174.605C159.807 173.379 161.849 173.298 162.778 173.329C163.017 173.337 163.2 173.543 163.177 173.782C163.156 173.998 162.972 174.162 162.755 174.156C161.841 174.129 160.248 174.248 159.778 175.032C159.388 175.682 159.895 176.707 160.389 177.454C161.747 179.506 171.535 186.095 183.661 193.121C194.103 199.171 207.612 206.258 214.209 208.005L213.998 208.804Z" fill="#108E59"/>
<path d="M213.017 204.724C212.259 209.741 210.851 214.284 207.928 217.726C207.928 217.726 210.321 219.535 212.573 218.328C214.293 217.408 217.747 209.624 216.596 205.4C215.193 204.592 213.974 204.293 213.017 204.724Z" fill="#108E59"/>
<path d="M240.208 166.405C238.194 168.981 235.417 170.422 233.212 171.896C227.909 175.443 217.15 177.684 217.958 165.469C218.768 153.255 228.008 158.205 221.21 136.751C218.308 127.598 216.31 108.73 216.31 108.73C216.31 108.73 231.498 119.37 240.484 145.612C241.185 147.656 241.714 149.522 242.097 151.228C243.835 158.975 242.527 163.441 240.208 166.405Z" fill="#FB4C47"/>
<path d="M240.207 166.405C236.912 160.522 239.644 154.706 242.096 151.228C243.834 158.976 242.526 163.441 240.207 166.405Z" fill="#B63A37"/>
<path d="M217.923 167.656C217.755 167.656 217.604 167.539 217.568 167.368C217.546 167.264 217.035 164.778 218.049 161.473C218.98 158.439 221.435 154.123 227.839 150.789C228.018 150.696 228.237 150.766 228.329 150.943C228.422 151.122 228.353 151.342 228.175 151.434C222.014 154.642 219.653 158.759 218.757 161.648C217.785 164.781 218.274 167.193 218.279 167.217C218.321 167.413 218.195 167.606 217.999 167.647C217.973 167.653 217.948 167.656 217.923 167.656Z" fill="#B63A37"/>
<path d="M223.441 154.345C223.392 154.35 223.34 154.345 223.29 154.328C223.099 154.264 222.996 154.058 223.061 153.867C224.24 150.358 224.996 148.855 225.027 148.793C225.118 148.614 225.336 148.542 225.516 148.634C225.695 148.724 225.766 148.943 225.676 149.122C225.668 149.137 224.909 150.649 223.751 154.099C223.703 154.239 223.58 154.332 223.441 154.345Z" fill="#B63A37"/>
<path d="M223.852 152.747C223.652 152.747 223.489 152.584 223.489 152.383C223.489 145.233 213.935 129.045 213.838 128.882C213.735 128.71 213.792 128.486 213.965 128.384C214.138 128.281 214.361 128.339 214.464 128.511C214.862 129.182 224.216 145.035 224.216 152.383C224.216 152.584 224.053 152.747 223.852 152.747Z" fill="#B63A37"/>
<path d="M217.09 134.374C217.014 134.374 216.937 134.35 216.872 134.301C215.635 133.377 212.507 132.56 212.476 132.552C212.281 132.502 212.164 132.303 212.215 132.109C212.265 131.914 212.464 131.798 212.658 131.848C212.792 131.883 215.956 132.709 217.307 133.719C217.468 133.839 217.501 134.067 217.381 134.228C217.309 134.323 217.2 134.374 217.09 134.374Z" fill="#B63A37"/>
<path d="M212.637 185.433C212.696 186.079 212.751 186.754 212.83 187.298C212.979 188.327 213.214 188.89 213.725 187.912C213.839 187.691 213.931 187.41 214.006 187.086C214.447 185.199 214.302 181.877 214.506 181.153C214.736 180.33 215.696 177.99 215.78 177.858C215.736 177.955 215.304 179.386 215.254 180.269C215.206 181.097 215.254 182.103 215.254 184.141C215.254 185.03 215.287 185.949 215.399 186.617V186.619C215.543 187.483 215.822 187.923 216.34 187.324C216.595 187.029 216.758 186.511 216.864 185.898C217.143 184.306 217.043 182.058 217.19 181.322C217.388 180.336 218.188 178.742 218.239 178.642C217.936 179.657 217.936 179.557 217.767 180.89C217.648 181.822 217.431 184.3 217.661 185.411C217.759 185.889 217.942 186.115 218.252 185.853C218.735 185.444 219.071 184.844 219.308 184.157C219.575 183.387 219.715 182.506 219.805 181.663C219.974 180.065 220.62 179.081 220.62 179.081C220.262 180.811 220.065 182.484 220.171 183.348C220.245 183.959 220.469 184.166 220.891 183.701C221.715 182.796 222.546 179.804 222.834 178.679C222.844 178.644 222.852 178.61 222.86 178.577C222.87 178.542 222.876 178.512 222.885 178.483C222.923 178.332 222.944 178.247 222.944 178.247L222.945 178.245C223.184 177.307 223.4 176.37 223.716 175.53C224.185 174.283 224.882 173.249 226.223 172.753C229.266 171.621 228.332 165.834 224.066 165.486C222.824 165.385 221.594 165.797 220.618 166.573C219.997 167.068 219.122 167.758 218.235 168.435L218.233 168.437C218.148 168.546 215.374 171.982 214.506 174.122C213.624 176.294 212.876 179.726 212.706 180.711C212.535 181.695 212.468 183.564 212.637 185.433Z" fill="#FAB893"/>
<path d="M145.59 169.26C147.616 171.901 150.411 173.38 152.629 174.891C157.964 178.527 168.79 180.826 167.977 168.299C167.162 155.775 157.865 160.851 164.705 138.852C167.624 129.466 167.977 110.761 167.977 110.761C167.977 110.761 154.354 121.029 145.312 147.938C144.607 150.034 144.074 151.947 143.69 153.697C141.941 161.641 143.257 166.22 145.59 169.26Z" fill="#FB4C47"/>
<path d="M145.674 169.774C148.969 163.89 146.236 158.075 143.785 154.597C142.047 162.345 143.355 166.81 145.674 169.774Z" fill="#B63A37"/>
<path d="M167.957 171.024C168.125 171.024 168.277 170.908 168.312 170.737C168.335 170.632 168.845 168.147 167.831 164.842C166.9 161.808 164.446 157.492 158.041 154.157C157.863 154.065 157.644 154.134 157.551 154.312C157.458 154.49 157.527 154.71 157.706 154.803C163.867 158.01 166.228 162.128 167.124 165.017C168.095 168.149 167.606 170.561 167.601 170.585C167.56 170.782 167.685 170.974 167.882 171.016C167.907 171.022 167.932 171.024 167.957 171.024Z" fill="#B63A37"/>
<path d="M162.441 157.714C162.491 157.719 162.542 157.713 162.592 157.697C162.783 157.632 162.885 157.426 162.821 157.236C161.642 153.726 160.886 152.224 160.855 152.162C160.764 151.983 160.546 151.911 160.366 152.002C160.187 152.093 160.115 152.312 160.206 152.491C160.214 152.505 160.973 154.018 162.132 157.468C162.179 157.608 162.302 157.7 162.441 157.714Z" fill="#B63A37"/>
<path d="M162.029 156.115C162.23 156.115 162.392 155.952 162.392 155.752C162.392 148.602 171.947 132.414 172.043 132.251C172.146 132.078 172.089 131.855 171.916 131.752C171.744 131.65 171.52 131.707 171.418 131.88C171.019 132.551 161.665 148.404 161.665 155.752C161.665 155.952 161.828 156.115 162.029 156.115Z" fill="#B63A37"/>
<path d="M168.792 137.742C168.868 137.742 168.944 137.719 169.009 137.669C170.245 136.745 173.374 135.929 173.405 135.921C173.6 135.871 173.717 135.672 173.666 135.477C173.616 135.283 173.417 135.166 173.223 135.216C173.089 135.251 169.924 136.077 168.573 137.087C168.413 137.207 168.38 137.435 168.5 137.597C168.571 137.692 168.681 137.742 168.792 137.742Z" fill="#B63A37"/>
<path d="M173.245 188.802C173.185 189.448 173.13 190.123 173.051 190.667C172.902 191.695 172.668 192.259 172.156 191.281C172.042 191.06 171.95 190.779 171.875 190.455C171.435 188.567 171.579 185.245 171.376 184.522C171.145 183.698 170.186 181.359 170.102 181.227C170.145 181.324 170.578 182.755 170.628 183.638C170.675 184.465 170.628 185.472 170.628 187.51C170.628 188.399 170.595 189.318 170.483 189.986V189.988C170.339 190.852 170.059 191.292 169.541 190.693C169.287 190.398 169.124 189.88 169.018 189.267C168.739 187.675 168.838 185.427 168.692 184.691C168.494 183.705 167.693 182.111 167.642 182.011C167.946 183.026 167.946 182.926 168.115 184.259C168.233 185.19 168.451 187.669 168.221 188.78C168.123 189.259 167.939 189.484 167.63 189.222C167.147 188.812 166.81 188.213 166.574 187.527C166.307 186.756 166.167 185.875 166.077 185.032C165.907 183.434 165.262 182.449 165.262 182.449C165.62 184.18 165.816 185.853 165.71 186.717C165.636 187.328 165.412 187.534 164.99 187.069C164.167 186.165 163.335 183.172 163.048 182.048C163.038 182.013 163.03 181.978 163.022 181.946C163.011 181.911 163.006 181.881 162.997 181.852C162.959 181.702 162.938 181.616 162.938 181.616L162.936 181.613C162.698 180.676 162.482 179.739 162.166 178.899C161.697 177.652 161 176.618 159.659 176.121C156.615 174.99 157.55 169.203 161.815 168.855C163.058 168.753 164.288 169.165 165.264 169.942C165.885 170.437 166.76 171.127 167.646 171.805L167.648 171.806C167.734 171.914 170.508 175.351 171.376 177.491C172.258 179.663 173.006 183.095 173.176 184.08C173.347 185.064 173.414 186.933 173.245 188.802Z" fill="#FAB893"/>
</svg>
